M48
; DRILL file {KiCad 8.0.8} date 2026-06-14T22:28:04+0530
; FORMAT={-:-/ absolute / inch / decimal}
; #@! TF.CreationDate,2026-06-14T22:28:04+05:30
; #@! TF.GenerationSoftware,Kicad,Pcbnew,8.0.8
; #@! TF.FileFunction,Plated,1,4,PTH
FMAT,2
INCH
; #@! TA.AperFunction,Plated,PTH,ViaDrill
T1C0.0118
; #@! TA.AperFunction,Plated,PTH,ComponentDrill
T2C0.0276
; #@! TA.AperFunction,Plated,PTH,ComponentDrill
T3C0.0315
; #@! TA.AperFunction,Plated,PTH,ComponentDrill
T4C0.0394
; #@! TA.AperFunction,Plated,PTH,ComponentDrill
T5C0.0433
; #@! TA.AperFunction,Plated,PTH,ComponentDrill
T6C0.0472
%
G90
G05
T1
X5.7244Y-4.0335
X5.7441Y-3.8051
X5.8302Y-4.252
X5.8465Y-3.878
X5.8976Y-3.9764
X5.937Y-4.3071
X5.9724Y-3.8051
X6.0079Y-3.9134
X6.1575Y-4.25
X6.2913Y-4.4646
X6.4055Y-3.8701
X6.622Y-3.7874
X6.6727Y-4.0034
X6.748Y-3.8661
X6.8031Y-3.9388
X6.8602Y-3.8837
X6.8617Y-4.1462
X6.8898Y-3.7638
X6.9291Y-4.0472
X6.9336Y-4.3263
X6.9758Y-3.9289
X6.9764Y-3.8976
X6.9764Y-3.9606
X7.0945Y-3.9843
X7.1614Y-3.8228
T2
X6.0974Y-3.9134
X6.1974Y-3.8134
X6.2974Y-3.9134
T3
X5.6535Y-4.0362
X5.6535Y-4.4362
T4
X6.8528Y-4.5354
X6.9528Y-4.5354
X7.0528Y-4.5354
T5
X5.6535Y-4.6063
T6
X6.5197Y-3.8102
X6.5197Y-4.4102
M30
