%TF.GenerationSoftware,KiCad,Pcbnew,8.0.8*%
%TF.CreationDate,2026-06-14T22:28:08+05:30*%
%TF.ProjectId,433 MHz RF Modules,34333320-4d48-47a2-9052-46204d6f6475,rev?*%
%TF.SameCoordinates,Original*%
%TF.FileFunction,Drillmap*%
%TF.FilePolarity,Positive*%
%FSLAX45Y45*%
G04 Gerber Fmt 4.5, Leading zero omitted, Abs format (unit mm)*
G04 Created by KiCad (PCBNEW 8.0.8) date 2026-06-14 22:28:08*
%MOMM*%
%LPD*%
G01*
G04 APERTURE LIST*
%ADD10C,0.050000*%
%ADD11C,0.200000*%
G04 APERTURE END LIST*
D10*
X14126581Y-9430000D02*
X18433419Y-9430000D01*
X18433419Y-11911837D01*
X14126581Y-11911837D01*
X14126581Y-9430000D01*
D11*
X14384858Y-12225821D02*
X14384858Y-12025821D01*
X14384858Y-12025821D02*
X14432477Y-12025821D01*
X14432477Y-12025821D02*
X14461049Y-12035345D01*
X14461049Y-12035345D02*
X14480096Y-12054392D01*
X14480096Y-12054392D02*
X14489620Y-12073440D01*
X14489620Y-12073440D02*
X14499144Y-12111535D01*
X14499144Y-12111535D02*
X14499144Y-12140107D01*
X14499144Y-12140107D02*
X14489620Y-12178202D01*
X14489620Y-12178202D02*
X14480096Y-12197250D01*
X14480096Y-12197250D02*
X14461049Y-12216297D01*
X14461049Y-12216297D02*
X14432477Y-12225821D01*
X14432477Y-12225821D02*
X14384858Y-12225821D01*
X14584858Y-12225821D02*
X14584858Y-12092488D01*
X14584858Y-12130583D02*
X14594382Y-12111535D01*
X14594382Y-12111535D02*
X14603906Y-12102011D01*
X14603906Y-12102011D02*
X14622953Y-12092488D01*
X14622953Y-12092488D02*
X14642001Y-12092488D01*
X14708668Y-12225821D02*
X14708668Y-12092488D01*
X14708668Y-12025821D02*
X14699144Y-12035345D01*
X14699144Y-12035345D02*
X14708668Y-12044869D01*
X14708668Y-12044869D02*
X14718191Y-12035345D01*
X14718191Y-12035345D02*
X14708668Y-12025821D01*
X14708668Y-12025821D02*
X14708668Y-12044869D01*
X14832477Y-12225821D02*
X14813429Y-12216297D01*
X14813429Y-12216297D02*
X14803906Y-12197250D01*
X14803906Y-12197250D02*
X14803906Y-12025821D01*
X14937239Y-12225821D02*
X14918191Y-12216297D01*
X14918191Y-12216297D02*
X14908668Y-12197250D01*
X14908668Y-12197250D02*
X14908668Y-12025821D01*
X15165810Y-12225821D02*
X15165810Y-12025821D01*
X15165810Y-12025821D02*
X15232477Y-12168678D01*
X15232477Y-12168678D02*
X15299144Y-12025821D01*
X15299144Y-12025821D02*
X15299144Y-12225821D01*
X15480096Y-12225821D02*
X15480096Y-12121059D01*
X15480096Y-12121059D02*
X15470572Y-12102011D01*
X15470572Y-12102011D02*
X15451525Y-12092488D01*
X15451525Y-12092488D02*
X15413429Y-12092488D01*
X15413429Y-12092488D02*
X15394382Y-12102011D01*
X15480096Y-12216297D02*
X15461049Y-12225821D01*
X15461049Y-12225821D02*
X15413429Y-12225821D01*
X15413429Y-12225821D02*
X15394382Y-12216297D01*
X15394382Y-12216297D02*
X15384858Y-12197250D01*
X15384858Y-12197250D02*
X15384858Y-12178202D01*
X15384858Y-12178202D02*
X15394382Y-12159154D01*
X15394382Y-12159154D02*
X15413429Y-12149631D01*
X15413429Y-12149631D02*
X15461049Y-12149631D01*
X15461049Y-12149631D02*
X15480096Y-12140107D01*
X15575334Y-12092488D02*
X15575334Y-12292488D01*
X15575334Y-12102011D02*
X15594382Y-12092488D01*
X15594382Y-12092488D02*
X15632477Y-12092488D01*
X15632477Y-12092488D02*
X15651525Y-12102011D01*
X15651525Y-12102011D02*
X15661049Y-12111535D01*
X15661049Y-12111535D02*
X15670572Y-12130583D01*
X15670572Y-12130583D02*
X15670572Y-12187726D01*
X15670572Y-12187726D02*
X15661049Y-12206773D01*
X15661049Y-12206773D02*
X15651525Y-12216297D01*
X15651525Y-12216297D02*
X15632477Y-12225821D01*
X15632477Y-12225821D02*
X15594382Y-12225821D01*
X15594382Y-12225821D02*
X15575334Y-12216297D01*
X15756287Y-12206773D02*
X15765810Y-12216297D01*
X15765810Y-12216297D02*
X15756287Y-12225821D01*
X15756287Y-12225821D02*
X15746763Y-12216297D01*
X15746763Y-12216297D02*
X15756287Y-12206773D01*
X15756287Y-12206773D02*
X15756287Y-12225821D01*
X15756287Y-12102011D02*
X15765810Y-12111535D01*
X15765810Y-12111535D02*
X15756287Y-12121059D01*
X15756287Y-12121059D02*
X15746763Y-12111535D01*
X15746763Y-12111535D02*
X15756287Y-12102011D01*
X15756287Y-12102011D02*
X15756287Y-12121059D01*
M02*
