%TF.GenerationSoftware,KiCad,Pcbnew,8.0.8*%
%TF.CreationDate,2026-06-14T22:28:08+05:30*%
%TF.ProjectId,433 MHz RF Modules,34333320-4d48-47a2-9052-46204d6f6475,rev?*%
%TF.SameCoordinates,Original*%
%TF.FileFunction,Drillmap*%
%TF.FilePolarity,Positive*%
%FSLAX45Y45*%
G04 Gerber Fmt 4.5, Leading zero omitted, Abs format (unit mm)*
G04 Created by KiCad (PCBNEW 8.0.8) date 2026-06-14 22:28:08*
%MOMM*%
%LPD*%
G01*
G04 APERTURE LIST*
%ADD10C,0.050000*%
%ADD11C,0.200000*%
%ADD12C,0.100000*%
%ADD13C,0.110000*%
%ADD14C,0.120000*%
G04 APERTURE END LIST*
D10*
X14126581Y-9430000D02*
X18433419Y-9430000D01*
X18433419Y-11911837D01*
X14126581Y-11911837D01*
X14126581Y-9430000D01*
D11*
D12*
X14525000Y-10230000D02*
X14555000Y-10260000D01*
X14555000Y-10230000D02*
X14525000Y-10260000D01*
X14575000Y-9650000D02*
X14605000Y-9680000D01*
X14605000Y-9650000D02*
X14575000Y-9680000D01*
X14793750Y-10785000D02*
X14823750Y-10815000D01*
X14823750Y-10785000D02*
X14793750Y-10815000D01*
X14835000Y-9835000D02*
X14865000Y-9865000D01*
X14865000Y-9835000D02*
X14835000Y-9865000D01*
X14965000Y-10085000D02*
X14995000Y-10115000D01*
X14995000Y-10085000D02*
X14965000Y-10115000D01*
X15065000Y-10925000D02*
X15095000Y-10955000D01*
X15095000Y-10925000D02*
X15065000Y-10955000D01*
X15155000Y-9650000D02*
X15185000Y-9680000D01*
X15185000Y-9650000D02*
X15155000Y-9680000D01*
X15245000Y-9925000D02*
X15275000Y-9955000D01*
X15275000Y-9925000D02*
X15245000Y-9955000D01*
X15625000Y-10780000D02*
X15655000Y-10810000D01*
X15655000Y-10780000D02*
X15625000Y-10810000D01*
X15965000Y-11325000D02*
X15995000Y-11355000D01*
X15995000Y-11325000D02*
X15965000Y-11355000D01*
X16255000Y-9815000D02*
X16285000Y-9845000D01*
X16285000Y-9815000D02*
X16255000Y-9845000D01*
X16805000Y-9605000D02*
X16835000Y-9635000D01*
X16835000Y-9605000D02*
X16805000Y-9635000D01*
X16933750Y-10153750D02*
X16963750Y-10183750D01*
X16963750Y-10153750D02*
X16933750Y-10183750D01*
X17125000Y-9805000D02*
X17155000Y-9835000D01*
X17155000Y-9805000D02*
X17125000Y-9835000D01*
X17265000Y-9989500D02*
X17295000Y-10019500D01*
X17295000Y-9989500D02*
X17265000Y-10019500D01*
X17410000Y-9849628D02*
X17440000Y-9879628D01*
X17440000Y-9849628D02*
X17410000Y-9879628D01*
X17413750Y-10516250D02*
X17443750Y-10546250D01*
X17443750Y-10516250D02*
X17413750Y-10546250D01*
X17485000Y-9545000D02*
X17515000Y-9575000D01*
X17515000Y-9545000D02*
X17485000Y-9575000D01*
X17585000Y-10265000D02*
X17615000Y-10295000D01*
X17615000Y-10265000D02*
X17585000Y-10295000D01*
X17596250Y-10973750D02*
X17626250Y-11003750D01*
X17626250Y-10973750D02*
X17596250Y-11003750D01*
X17703500Y-9964500D02*
X17733500Y-9994500D01*
X17733500Y-9964500D02*
X17703500Y-9994500D01*
X17705000Y-9885000D02*
X17735000Y-9915000D01*
X17735000Y-9885000D02*
X17705000Y-9915000D01*
X17705000Y-10045000D02*
X17735000Y-10075000D01*
X17735000Y-10045000D02*
X17705000Y-10075000D01*
X18005000Y-10105000D02*
X18035000Y-10135000D01*
X18035000Y-10105000D02*
X18005000Y-10135000D01*
X18175000Y-9695000D02*
X18205000Y-9725000D01*
X18205000Y-9695000D02*
X18175000Y-9725000D01*
X15522500Y-9940000D02*
G75*
G02*
X15452500Y-9940000I-35000J0D01*
G01*
X15452500Y-9940000D02*
G75*
G02*
X15522500Y-9940000I35000J0D01*
G01*
X15776500Y-9686000D02*
G75*
G02*
X15706500Y-9686000I-35000J0D01*
G01*
X15706500Y-9686000D02*
G75*
G02*
X15776500Y-9686000I35000J0D01*
G01*
X16030500Y-9940000D02*
G75*
G02*
X15960500Y-9940000I-35000J0D01*
G01*
X15960500Y-9940000D02*
G75*
G02*
X16030500Y-9940000I35000J0D01*
G01*
X14360000Y-10212000D02*
X14360000Y-10292000D01*
X14320000Y-10252000D02*
X14400000Y-10252000D01*
X14360000Y-11228000D02*
X14360000Y-11308000D01*
X14320000Y-11268000D02*
X14400000Y-11268000D01*
X17441356Y-11555356D02*
X17441356Y-11484644D01*
X17370644Y-11484644D01*
X17370644Y-11555356D01*
X17441356Y-11555356D01*
X17695356Y-11555356D02*
X17695356Y-11484644D01*
X17624644Y-11484644D01*
X17624644Y-11555356D01*
X17695356Y-11555356D01*
X17949356Y-11555356D02*
X17949356Y-11484644D01*
X17878644Y-11484644D01*
X17878644Y-11555356D01*
X17949356Y-11555356D01*
D13*
X14360000Y-11755000D02*
X14415000Y-11700000D01*
X14360000Y-11645000D01*
X14305000Y-11700000D01*
X14360000Y-11755000D01*
D14*
X16500000Y-9618000D02*
X16620000Y-9738000D01*
X16620000Y-9618000D02*
X16500000Y-9738000D01*
X16620000Y-9678000D02*
G75*
G02*
X16500000Y-9678000I-60000J0D01*
G01*
X16500000Y-9678000D02*
G75*
G02*
X16620000Y-9678000I60000J0D01*
G01*
X16500000Y-11142000D02*
X16620000Y-11262000D01*
X16620000Y-11142000D02*
X16500000Y-11262000D01*
X16620000Y-11202000D02*
G75*
G02*
X16500000Y-11202000I-60000J0D01*
G01*
X16500000Y-11202000D02*
G75*
G02*
X16620000Y-11202000I60000J0D01*
G01*
D11*
X14384858Y-12225821D02*
X14384858Y-12025821D01*
X14384858Y-12025821D02*
X14432477Y-12025821D01*
X14432477Y-12025821D02*
X14461049Y-12035345D01*
X14461049Y-12035345D02*
X14480096Y-12054392D01*
X14480096Y-12054392D02*
X14489620Y-12073440D01*
X14489620Y-12073440D02*
X14499144Y-12111535D01*
X14499144Y-12111535D02*
X14499144Y-12140107D01*
X14499144Y-12140107D02*
X14489620Y-12178202D01*
X14489620Y-12178202D02*
X14480096Y-12197250D01*
X14480096Y-12197250D02*
X14461049Y-12216297D01*
X14461049Y-12216297D02*
X14432477Y-12225821D01*
X14432477Y-12225821D02*
X14384858Y-12225821D01*
X14584858Y-12225821D02*
X14584858Y-12092488D01*
X14584858Y-12130583D02*
X14594382Y-12111535D01*
X14594382Y-12111535D02*
X14603906Y-12102011D01*
X14603906Y-12102011D02*
X14622953Y-12092488D01*
X14622953Y-12092488D02*
X14642001Y-12092488D01*
X14708668Y-12225821D02*
X14708668Y-12092488D01*
X14708668Y-12025821D02*
X14699144Y-12035345D01*
X14699144Y-12035345D02*
X14708668Y-12044869D01*
X14708668Y-12044869D02*
X14718191Y-12035345D01*
X14718191Y-12035345D02*
X14708668Y-12025821D01*
X14708668Y-12025821D02*
X14708668Y-12044869D01*
X14832477Y-12225821D02*
X14813429Y-12216297D01*
X14813429Y-12216297D02*
X14803906Y-12197250D01*
X14803906Y-12197250D02*
X14803906Y-12025821D01*
X14937239Y-12225821D02*
X14918191Y-12216297D01*
X14918191Y-12216297D02*
X14908668Y-12197250D01*
X14908668Y-12197250D02*
X14908668Y-12025821D01*
X15165810Y-12225821D02*
X15165810Y-12025821D01*
X15165810Y-12025821D02*
X15232477Y-12168678D01*
X15232477Y-12168678D02*
X15299144Y-12025821D01*
X15299144Y-12025821D02*
X15299144Y-12225821D01*
X15480096Y-12225821D02*
X15480096Y-12121059D01*
X15480096Y-12121059D02*
X15470572Y-12102011D01*
X15470572Y-12102011D02*
X15451525Y-12092488D01*
X15451525Y-12092488D02*
X15413429Y-12092488D01*
X15413429Y-12092488D02*
X15394382Y-12102011D01*
X15480096Y-12216297D02*
X15461049Y-12225821D01*
X15461049Y-12225821D02*
X15413429Y-12225821D01*
X15413429Y-12225821D02*
X15394382Y-12216297D01*
X15394382Y-12216297D02*
X15384858Y-12197250D01*
X15384858Y-12197250D02*
X15384858Y-12178202D01*
X15384858Y-12178202D02*
X15394382Y-12159154D01*
X15394382Y-12159154D02*
X15413429Y-12149631D01*
X15413429Y-12149631D02*
X15461049Y-12149631D01*
X15461049Y-12149631D02*
X15480096Y-12140107D01*
X15575334Y-12092488D02*
X15575334Y-12292488D01*
X15575334Y-12102011D02*
X15594382Y-12092488D01*
X15594382Y-12092488D02*
X15632477Y-12092488D01*
X15632477Y-12092488D02*
X15651525Y-12102011D01*
X15651525Y-12102011D02*
X15661049Y-12111535D01*
X15661049Y-12111535D02*
X15670572Y-12130583D01*
X15670572Y-12130583D02*
X15670572Y-12187726D01*
X15670572Y-12187726D02*
X15661049Y-12206773D01*
X15661049Y-12206773D02*
X15651525Y-12216297D01*
X15651525Y-12216297D02*
X15632477Y-12225821D01*
X15632477Y-12225821D02*
X15594382Y-12225821D01*
X15594382Y-12225821D02*
X15575334Y-12216297D01*
X15756287Y-12206773D02*
X15765810Y-12216297D01*
X15765810Y-12216297D02*
X15756287Y-12225821D01*
X15756287Y-12225821D02*
X15746763Y-12216297D01*
X15746763Y-12216297D02*
X15756287Y-12206773D01*
X15756287Y-12206773D02*
X15756287Y-12225821D01*
X15756287Y-12102011D02*
X15765810Y-12111535D01*
X15765810Y-12111535D02*
X15756287Y-12121059D01*
X15756287Y-12121059D02*
X15746763Y-12111535D01*
X15746763Y-12111535D02*
X15756287Y-12102011D01*
X15756287Y-12102011D02*
X15756287Y-12121059D01*
D12*
X14094081Y-12539337D02*
X14124081Y-12569337D01*
X14124081Y-12539337D02*
X14094081Y-12569337D01*
D11*
X14422953Y-12445821D02*
X14442001Y-12445821D01*
X14442001Y-12445821D02*
X14461049Y-12455345D01*
X14461049Y-12455345D02*
X14470572Y-12464869D01*
X14470572Y-12464869D02*
X14480096Y-12483916D01*
X14480096Y-12483916D02*
X14489620Y-12522011D01*
X14489620Y-12522011D02*
X14489620Y-12569631D01*
X14489620Y-12569631D02*
X14480096Y-12607726D01*
X14480096Y-12607726D02*
X14470572Y-12626773D01*
X14470572Y-12626773D02*
X14461049Y-12636297D01*
X14461049Y-12636297D02*
X14442001Y-12645821D01*
X14442001Y-12645821D02*
X14422953Y-12645821D01*
X14422953Y-12645821D02*
X14403906Y-12636297D01*
X14403906Y-12636297D02*
X14394382Y-12626773D01*
X14394382Y-12626773D02*
X14384858Y-12607726D01*
X14384858Y-12607726D02*
X14375334Y-12569631D01*
X14375334Y-12569631D02*
X14375334Y-12522011D01*
X14375334Y-12522011D02*
X14384858Y-12483916D01*
X14384858Y-12483916D02*
X14394382Y-12464869D01*
X14394382Y-12464869D02*
X14403906Y-12455345D01*
X14403906Y-12455345D02*
X14422953Y-12445821D01*
X14575334Y-12626773D02*
X14584858Y-12636297D01*
X14584858Y-12636297D02*
X14575334Y-12645821D01*
X14575334Y-12645821D02*
X14565810Y-12636297D01*
X14565810Y-12636297D02*
X14575334Y-12626773D01*
X14575334Y-12626773D02*
X14575334Y-12645821D01*
X14651525Y-12445821D02*
X14775334Y-12445821D01*
X14775334Y-12445821D02*
X14708668Y-12522011D01*
X14708668Y-12522011D02*
X14737239Y-12522011D01*
X14737239Y-12522011D02*
X14756287Y-12531535D01*
X14756287Y-12531535D02*
X14765810Y-12541059D01*
X14765810Y-12541059D02*
X14775334Y-12560107D01*
X14775334Y-12560107D02*
X14775334Y-12607726D01*
X14775334Y-12607726D02*
X14765810Y-12626773D01*
X14765810Y-12626773D02*
X14756287Y-12636297D01*
X14756287Y-12636297D02*
X14737239Y-12645821D01*
X14737239Y-12645821D02*
X14680096Y-12645821D01*
X14680096Y-12645821D02*
X14661049Y-12636297D01*
X14661049Y-12636297D02*
X14651525Y-12626773D01*
X14899144Y-12445821D02*
X14918191Y-12445821D01*
X14918191Y-12445821D02*
X14937239Y-12455345D01*
X14937239Y-12455345D02*
X14946763Y-12464869D01*
X14946763Y-12464869D02*
X14956287Y-12483916D01*
X14956287Y-12483916D02*
X14965810Y-12522011D01*
X14965810Y-12522011D02*
X14965810Y-12569631D01*
X14965810Y-12569631D02*
X14956287Y-12607726D01*
X14956287Y-12607726D02*
X14946763Y-12626773D01*
X14946763Y-12626773D02*
X14937239Y-12636297D01*
X14937239Y-12636297D02*
X14918191Y-12645821D01*
X14918191Y-12645821D02*
X14899144Y-12645821D01*
X14899144Y-12645821D02*
X14880096Y-12636297D01*
X14880096Y-12636297D02*
X14870572Y-12626773D01*
X14870572Y-12626773D02*
X14861049Y-12607726D01*
X14861049Y-12607726D02*
X14851525Y-12569631D01*
X14851525Y-12569631D02*
X14851525Y-12522011D01*
X14851525Y-12522011D02*
X14861049Y-12483916D01*
X14861049Y-12483916D02*
X14870572Y-12464869D01*
X14870572Y-12464869D02*
X14880096Y-12455345D01*
X14880096Y-12455345D02*
X14899144Y-12445821D01*
X15089620Y-12445821D02*
X15108668Y-12445821D01*
X15108668Y-12445821D02*
X15127715Y-12455345D01*
X15127715Y-12455345D02*
X15137239Y-12464869D01*
X15137239Y-12464869D02*
X15146763Y-12483916D01*
X15146763Y-12483916D02*
X15156287Y-12522011D01*
X15156287Y-12522011D02*
X15156287Y-12569631D01*
X15156287Y-12569631D02*
X15146763Y-12607726D01*
X15146763Y-12607726D02*
X15137239Y-12626773D01*
X15137239Y-12626773D02*
X15127715Y-12636297D01*
X15127715Y-12636297D02*
X15108668Y-12645821D01*
X15108668Y-12645821D02*
X15089620Y-12645821D01*
X15089620Y-12645821D02*
X15070572Y-12636297D01*
X15070572Y-12636297D02*
X15061049Y-12626773D01*
X15061049Y-12626773D02*
X15051525Y-12607726D01*
X15051525Y-12607726D02*
X15042001Y-12569631D01*
X15042001Y-12569631D02*
X15042001Y-12522011D01*
X15042001Y-12522011D02*
X15051525Y-12483916D01*
X15051525Y-12483916D02*
X15061049Y-12464869D01*
X15061049Y-12464869D02*
X15070572Y-12455345D01*
X15070572Y-12455345D02*
X15089620Y-12445821D01*
X15242001Y-12645821D02*
X15242001Y-12512488D01*
X15242001Y-12531535D02*
X15251525Y-12522011D01*
X15251525Y-12522011D02*
X15270572Y-12512488D01*
X15270572Y-12512488D02*
X15299144Y-12512488D01*
X15299144Y-12512488D02*
X15318191Y-12522011D01*
X15318191Y-12522011D02*
X15327715Y-12541059D01*
X15327715Y-12541059D02*
X15327715Y-12645821D01*
X15327715Y-12541059D02*
X15337239Y-12522011D01*
X15337239Y-12522011D02*
X15356287Y-12512488D01*
X15356287Y-12512488D02*
X15384858Y-12512488D01*
X15384858Y-12512488D02*
X15403906Y-12522011D01*
X15403906Y-12522011D02*
X15413430Y-12541059D01*
X15413430Y-12541059D02*
X15413430Y-12645821D01*
X15508668Y-12645821D02*
X15508668Y-12512488D01*
X15508668Y-12531535D02*
X15518191Y-12522011D01*
X15518191Y-12522011D02*
X15537239Y-12512488D01*
X15537239Y-12512488D02*
X15565811Y-12512488D01*
X15565811Y-12512488D02*
X15584858Y-12522011D01*
X15584858Y-12522011D02*
X15594382Y-12541059D01*
X15594382Y-12541059D02*
X15594382Y-12645821D01*
X15594382Y-12541059D02*
X15603906Y-12522011D01*
X15603906Y-12522011D02*
X15622953Y-12512488D01*
X15622953Y-12512488D02*
X15651525Y-12512488D01*
X15651525Y-12512488D02*
X15670572Y-12522011D01*
X15670572Y-12522011D02*
X15680096Y-12541059D01*
X15680096Y-12541059D02*
X15680096Y-12645821D01*
X16070572Y-12436297D02*
X15899144Y-12693440D01*
X16327715Y-12445821D02*
X16346763Y-12445821D01*
X16346763Y-12445821D02*
X16365811Y-12455345D01*
X16365811Y-12455345D02*
X16375334Y-12464869D01*
X16375334Y-12464869D02*
X16384858Y-12483916D01*
X16384858Y-12483916D02*
X16394382Y-12522011D01*
X16394382Y-12522011D02*
X16394382Y-12569631D01*
X16394382Y-12569631D02*
X16384858Y-12607726D01*
X16384858Y-12607726D02*
X16375334Y-12626773D01*
X16375334Y-12626773D02*
X16365811Y-12636297D01*
X16365811Y-12636297D02*
X16346763Y-12645821D01*
X16346763Y-12645821D02*
X16327715Y-12645821D01*
X16327715Y-12645821D02*
X16308668Y-12636297D01*
X16308668Y-12636297D02*
X16299144Y-12626773D01*
X16299144Y-12626773D02*
X16289620Y-12607726D01*
X16289620Y-12607726D02*
X16280096Y-12569631D01*
X16280096Y-12569631D02*
X16280096Y-12522011D01*
X16280096Y-12522011D02*
X16289620Y-12483916D01*
X16289620Y-12483916D02*
X16299144Y-12464869D01*
X16299144Y-12464869D02*
X16308668Y-12455345D01*
X16308668Y-12455345D02*
X16327715Y-12445821D01*
X16480096Y-12626773D02*
X16489620Y-12636297D01*
X16489620Y-12636297D02*
X16480096Y-12645821D01*
X16480096Y-12645821D02*
X16470573Y-12636297D01*
X16470573Y-12636297D02*
X16480096Y-12626773D01*
X16480096Y-12626773D02*
X16480096Y-12645821D01*
X16613430Y-12445821D02*
X16632477Y-12445821D01*
X16632477Y-12445821D02*
X16651525Y-12455345D01*
X16651525Y-12455345D02*
X16661049Y-12464869D01*
X16661049Y-12464869D02*
X16670573Y-12483916D01*
X16670573Y-12483916D02*
X16680096Y-12522011D01*
X16680096Y-12522011D02*
X16680096Y-12569631D01*
X16680096Y-12569631D02*
X16670573Y-12607726D01*
X16670573Y-12607726D02*
X16661049Y-12626773D01*
X16661049Y-12626773D02*
X16651525Y-12636297D01*
X16651525Y-12636297D02*
X16632477Y-12645821D01*
X16632477Y-12645821D02*
X16613430Y-12645821D01*
X16613430Y-12645821D02*
X16594382Y-12636297D01*
X16594382Y-12636297D02*
X16584858Y-12626773D01*
X16584858Y-12626773D02*
X16575334Y-12607726D01*
X16575334Y-12607726D02*
X16565811Y-12569631D01*
X16565811Y-12569631D02*
X16565811Y-12522011D01*
X16565811Y-12522011D02*
X16575334Y-12483916D01*
X16575334Y-12483916D02*
X16584858Y-12464869D01*
X16584858Y-12464869D02*
X16594382Y-12455345D01*
X16594382Y-12455345D02*
X16613430Y-12445821D01*
X16870573Y-12645821D02*
X16756287Y-12645821D01*
X16813430Y-12645821D02*
X16813430Y-12445821D01*
X16813430Y-12445821D02*
X16794382Y-12474392D01*
X16794382Y-12474392D02*
X16775334Y-12493440D01*
X16775334Y-12493440D02*
X16756287Y-12502964D01*
X17061049Y-12645821D02*
X16946763Y-12645821D01*
X17003906Y-12645821D02*
X17003906Y-12445821D01*
X17003906Y-12445821D02*
X16984858Y-12474392D01*
X16984858Y-12474392D02*
X16965811Y-12493440D01*
X16965811Y-12493440D02*
X16946763Y-12502964D01*
X17175335Y-12531535D02*
X17156287Y-12522011D01*
X17156287Y-12522011D02*
X17146763Y-12512488D01*
X17146763Y-12512488D02*
X17137239Y-12493440D01*
X17137239Y-12493440D02*
X17137239Y-12483916D01*
X17137239Y-12483916D02*
X17146763Y-12464869D01*
X17146763Y-12464869D02*
X17156287Y-12455345D01*
X17156287Y-12455345D02*
X17175335Y-12445821D01*
X17175335Y-12445821D02*
X17213430Y-12445821D01*
X17213430Y-12445821D02*
X17232477Y-12455345D01*
X17232477Y-12455345D02*
X17242001Y-12464869D01*
X17242001Y-12464869D02*
X17251525Y-12483916D01*
X17251525Y-12483916D02*
X17251525Y-12493440D01*
X17251525Y-12493440D02*
X17242001Y-12512488D01*
X17242001Y-12512488D02*
X17232477Y-12522011D01*
X17232477Y-12522011D02*
X17213430Y-12531535D01*
X17213430Y-12531535D02*
X17175335Y-12531535D01*
X17175335Y-12531535D02*
X17156287Y-12541059D01*
X17156287Y-12541059D02*
X17146763Y-12550583D01*
X17146763Y-12550583D02*
X17137239Y-12569631D01*
X17137239Y-12569631D02*
X17137239Y-12607726D01*
X17137239Y-12607726D02*
X17146763Y-12626773D01*
X17146763Y-12626773D02*
X17156287Y-12636297D01*
X17156287Y-12636297D02*
X17175335Y-12645821D01*
X17175335Y-12645821D02*
X17213430Y-12645821D01*
X17213430Y-12645821D02*
X17232477Y-12636297D01*
X17232477Y-12636297D02*
X17242001Y-12626773D01*
X17242001Y-12626773D02*
X17251525Y-12607726D01*
X17251525Y-12607726D02*
X17251525Y-12569631D01*
X17251525Y-12569631D02*
X17242001Y-12550583D01*
X17242001Y-12550583D02*
X17232477Y-12541059D01*
X17232477Y-12541059D02*
X17213430Y-12531535D01*
X17327716Y-12445821D02*
X17327716Y-12483916D01*
X17403906Y-12445821D02*
X17403906Y-12483916D01*
X17699144Y-12722011D02*
X17689620Y-12712488D01*
X17689620Y-12712488D02*
X17670573Y-12683916D01*
X17670573Y-12683916D02*
X17661049Y-12664869D01*
X17661049Y-12664869D02*
X17651525Y-12636297D01*
X17651525Y-12636297D02*
X17642001Y-12588678D01*
X17642001Y-12588678D02*
X17642001Y-12550583D01*
X17642001Y-12550583D02*
X17651525Y-12502964D01*
X17651525Y-12502964D02*
X17661049Y-12474392D01*
X17661049Y-12474392D02*
X17670573Y-12455345D01*
X17670573Y-12455345D02*
X17689620Y-12426773D01*
X17689620Y-12426773D02*
X17699144Y-12417250D01*
X17765811Y-12464869D02*
X17775335Y-12455345D01*
X17775335Y-12455345D02*
X17794382Y-12445821D01*
X17794382Y-12445821D02*
X17842001Y-12445821D01*
X17842001Y-12445821D02*
X17861049Y-12455345D01*
X17861049Y-12455345D02*
X17870573Y-12464869D01*
X17870573Y-12464869D02*
X17880097Y-12483916D01*
X17880097Y-12483916D02*
X17880097Y-12502964D01*
X17880097Y-12502964D02*
X17870573Y-12531535D01*
X17870573Y-12531535D02*
X17756287Y-12645821D01*
X17756287Y-12645821D02*
X17880097Y-12645821D01*
X18061049Y-12445821D02*
X17965811Y-12445821D01*
X17965811Y-12445821D02*
X17956287Y-12541059D01*
X17956287Y-12541059D02*
X17965811Y-12531535D01*
X17965811Y-12531535D02*
X17984858Y-12522011D01*
X17984858Y-12522011D02*
X18032478Y-12522011D01*
X18032478Y-12522011D02*
X18051525Y-12531535D01*
X18051525Y-12531535D02*
X18061049Y-12541059D01*
X18061049Y-12541059D02*
X18070573Y-12560107D01*
X18070573Y-12560107D02*
X18070573Y-12607726D01*
X18070573Y-12607726D02*
X18061049Y-12626773D01*
X18061049Y-12626773D02*
X18051525Y-12636297D01*
X18051525Y-12636297D02*
X18032478Y-12645821D01*
X18032478Y-12645821D02*
X17984858Y-12645821D01*
X17984858Y-12645821D02*
X17965811Y-12636297D01*
X17965811Y-12636297D02*
X17956287Y-12626773D01*
X18308668Y-12645821D02*
X18308668Y-12445821D01*
X18394382Y-12645821D02*
X18394382Y-12541059D01*
X18394382Y-12541059D02*
X18384859Y-12522011D01*
X18384859Y-12522011D02*
X18365811Y-12512488D01*
X18365811Y-12512488D02*
X18337239Y-12512488D01*
X18337239Y-12512488D02*
X18318192Y-12522011D01*
X18318192Y-12522011D02*
X18308668Y-12531535D01*
X18518192Y-12645821D02*
X18499144Y-12636297D01*
X18499144Y-12636297D02*
X18489620Y-12626773D01*
X18489620Y-12626773D02*
X18480097Y-12607726D01*
X18480097Y-12607726D02*
X18480097Y-12550583D01*
X18480097Y-12550583D02*
X18489620Y-12531535D01*
X18489620Y-12531535D02*
X18499144Y-12522011D01*
X18499144Y-12522011D02*
X18518192Y-12512488D01*
X18518192Y-12512488D02*
X18546763Y-12512488D01*
X18546763Y-12512488D02*
X18565811Y-12522011D01*
X18565811Y-12522011D02*
X18575335Y-12531535D01*
X18575335Y-12531535D02*
X18584859Y-12550583D01*
X18584859Y-12550583D02*
X18584859Y-12607726D01*
X18584859Y-12607726D02*
X18575335Y-12626773D01*
X18575335Y-12626773D02*
X18565811Y-12636297D01*
X18565811Y-12636297D02*
X18546763Y-12645821D01*
X18546763Y-12645821D02*
X18518192Y-12645821D01*
X18699144Y-12645821D02*
X18680097Y-12636297D01*
X18680097Y-12636297D02*
X18670573Y-12617250D01*
X18670573Y-12617250D02*
X18670573Y-12445821D01*
X18851525Y-12636297D02*
X18832478Y-12645821D01*
X18832478Y-12645821D02*
X18794382Y-12645821D01*
X18794382Y-12645821D02*
X18775335Y-12636297D01*
X18775335Y-12636297D02*
X18765811Y-12617250D01*
X18765811Y-12617250D02*
X18765811Y-12541059D01*
X18765811Y-12541059D02*
X18775335Y-12522011D01*
X18775335Y-12522011D02*
X18794382Y-12512488D01*
X18794382Y-12512488D02*
X18832478Y-12512488D01*
X18832478Y-12512488D02*
X18851525Y-12522011D01*
X18851525Y-12522011D02*
X18861049Y-12541059D01*
X18861049Y-12541059D02*
X18861049Y-12560107D01*
X18861049Y-12560107D02*
X18765811Y-12579154D01*
X18937240Y-12636297D02*
X18956287Y-12645821D01*
X18956287Y-12645821D02*
X18994382Y-12645821D01*
X18994382Y-12645821D02*
X19013430Y-12636297D01*
X19013430Y-12636297D02*
X19022954Y-12617250D01*
X19022954Y-12617250D02*
X19022954Y-12607726D01*
X19022954Y-12607726D02*
X19013430Y-12588678D01*
X19013430Y-12588678D02*
X18994382Y-12579154D01*
X18994382Y-12579154D02*
X18965811Y-12579154D01*
X18965811Y-12579154D02*
X18946763Y-12569631D01*
X18946763Y-12569631D02*
X18937240Y-12550583D01*
X18937240Y-12550583D02*
X18937240Y-12541059D01*
X18937240Y-12541059D02*
X18946763Y-12522011D01*
X18946763Y-12522011D02*
X18965811Y-12512488D01*
X18965811Y-12512488D02*
X18994382Y-12512488D01*
X18994382Y-12512488D02*
X19013430Y-12522011D01*
X19089621Y-12722011D02*
X19099144Y-12712488D01*
X19099144Y-12712488D02*
X19118192Y-12683916D01*
X19118192Y-12683916D02*
X19127716Y-12664869D01*
X19127716Y-12664869D02*
X19137240Y-12636297D01*
X19137240Y-12636297D02*
X19146763Y-12588678D01*
X19146763Y-12588678D02*
X19146763Y-12550583D01*
X19146763Y-12550583D02*
X19137240Y-12502964D01*
X19137240Y-12502964D02*
X19127716Y-12474392D01*
X19127716Y-12474392D02*
X19118192Y-12455345D01*
X19118192Y-12455345D02*
X19099144Y-12426773D01*
X19099144Y-12426773D02*
X19089621Y-12417250D01*
D12*
X14124081Y-12818337D02*
G75*
G02*
X14054081Y-12818337I-35000J0D01*
G01*
X14054081Y-12818337D02*
G75*
G02*
X14124081Y-12818337I35000J0D01*
G01*
D11*
X14422953Y-12709821D02*
X14442001Y-12709821D01*
X14442001Y-12709821D02*
X14461049Y-12719345D01*
X14461049Y-12719345D02*
X14470572Y-12728869D01*
X14470572Y-12728869D02*
X14480096Y-12747916D01*
X14480096Y-12747916D02*
X14489620Y-12786011D01*
X14489620Y-12786011D02*
X14489620Y-12833631D01*
X14489620Y-12833631D02*
X14480096Y-12871726D01*
X14480096Y-12871726D02*
X14470572Y-12890773D01*
X14470572Y-12890773D02*
X14461049Y-12900297D01*
X14461049Y-12900297D02*
X14442001Y-12909821D01*
X14442001Y-12909821D02*
X14422953Y-12909821D01*
X14422953Y-12909821D02*
X14403906Y-12900297D01*
X14403906Y-12900297D02*
X14394382Y-12890773D01*
X14394382Y-12890773D02*
X14384858Y-12871726D01*
X14384858Y-12871726D02*
X14375334Y-12833631D01*
X14375334Y-12833631D02*
X14375334Y-12786011D01*
X14375334Y-12786011D02*
X14384858Y-12747916D01*
X14384858Y-12747916D02*
X14394382Y-12728869D01*
X14394382Y-12728869D02*
X14403906Y-12719345D01*
X14403906Y-12719345D02*
X14422953Y-12709821D01*
X14575334Y-12890773D02*
X14584858Y-12900297D01*
X14584858Y-12900297D02*
X14575334Y-12909821D01*
X14575334Y-12909821D02*
X14565810Y-12900297D01*
X14565810Y-12900297D02*
X14575334Y-12890773D01*
X14575334Y-12890773D02*
X14575334Y-12909821D01*
X14651525Y-12709821D02*
X14784858Y-12709821D01*
X14784858Y-12709821D02*
X14699144Y-12909821D01*
X14899144Y-12709821D02*
X14918191Y-12709821D01*
X14918191Y-12709821D02*
X14937239Y-12719345D01*
X14937239Y-12719345D02*
X14946763Y-12728869D01*
X14946763Y-12728869D02*
X14956287Y-12747916D01*
X14956287Y-12747916D02*
X14965810Y-12786011D01*
X14965810Y-12786011D02*
X14965810Y-12833631D01*
X14965810Y-12833631D02*
X14956287Y-12871726D01*
X14956287Y-12871726D02*
X14946763Y-12890773D01*
X14946763Y-12890773D02*
X14937239Y-12900297D01*
X14937239Y-12900297D02*
X14918191Y-12909821D01*
X14918191Y-12909821D02*
X14899144Y-12909821D01*
X14899144Y-12909821D02*
X14880096Y-12900297D01*
X14880096Y-12900297D02*
X14870572Y-12890773D01*
X14870572Y-12890773D02*
X14861049Y-12871726D01*
X14861049Y-12871726D02*
X14851525Y-12833631D01*
X14851525Y-12833631D02*
X14851525Y-12786011D01*
X14851525Y-12786011D02*
X14861049Y-12747916D01*
X14861049Y-12747916D02*
X14870572Y-12728869D01*
X14870572Y-12728869D02*
X14880096Y-12719345D01*
X14880096Y-12719345D02*
X14899144Y-12709821D01*
X15089620Y-12709821D02*
X15108668Y-12709821D01*
X15108668Y-12709821D02*
X15127715Y-12719345D01*
X15127715Y-12719345D02*
X15137239Y-12728869D01*
X15137239Y-12728869D02*
X15146763Y-12747916D01*
X15146763Y-12747916D02*
X15156287Y-12786011D01*
X15156287Y-12786011D02*
X15156287Y-12833631D01*
X15156287Y-12833631D02*
X15146763Y-12871726D01*
X15146763Y-12871726D02*
X15137239Y-12890773D01*
X15137239Y-12890773D02*
X15127715Y-12900297D01*
X15127715Y-12900297D02*
X15108668Y-12909821D01*
X15108668Y-12909821D02*
X15089620Y-12909821D01*
X15089620Y-12909821D02*
X15070572Y-12900297D01*
X15070572Y-12900297D02*
X15061049Y-12890773D01*
X15061049Y-12890773D02*
X15051525Y-12871726D01*
X15051525Y-12871726D02*
X15042001Y-12833631D01*
X15042001Y-12833631D02*
X15042001Y-12786011D01*
X15042001Y-12786011D02*
X15051525Y-12747916D01*
X15051525Y-12747916D02*
X15061049Y-12728869D01*
X15061049Y-12728869D02*
X15070572Y-12719345D01*
X15070572Y-12719345D02*
X15089620Y-12709821D01*
X15242001Y-12909821D02*
X15242001Y-12776488D01*
X15242001Y-12795535D02*
X15251525Y-12786011D01*
X15251525Y-12786011D02*
X15270572Y-12776488D01*
X15270572Y-12776488D02*
X15299144Y-12776488D01*
X15299144Y-12776488D02*
X15318191Y-12786011D01*
X15318191Y-12786011D02*
X15327715Y-12805059D01*
X15327715Y-12805059D02*
X15327715Y-12909821D01*
X15327715Y-12805059D02*
X15337239Y-12786011D01*
X15337239Y-12786011D02*
X15356287Y-12776488D01*
X15356287Y-12776488D02*
X15384858Y-12776488D01*
X15384858Y-12776488D02*
X15403906Y-12786011D01*
X15403906Y-12786011D02*
X15413430Y-12805059D01*
X15413430Y-12805059D02*
X15413430Y-12909821D01*
X15508668Y-12909821D02*
X15508668Y-12776488D01*
X15508668Y-12795535D02*
X15518191Y-12786011D01*
X15518191Y-12786011D02*
X15537239Y-12776488D01*
X15537239Y-12776488D02*
X15565811Y-12776488D01*
X15565811Y-12776488D02*
X15584858Y-12786011D01*
X15584858Y-12786011D02*
X15594382Y-12805059D01*
X15594382Y-12805059D02*
X15594382Y-12909821D01*
X15594382Y-12805059D02*
X15603906Y-12786011D01*
X15603906Y-12786011D02*
X15622953Y-12776488D01*
X15622953Y-12776488D02*
X15651525Y-12776488D01*
X15651525Y-12776488D02*
X15670572Y-12786011D01*
X15670572Y-12786011D02*
X15680096Y-12805059D01*
X15680096Y-12805059D02*
X15680096Y-12909821D01*
X16070572Y-12700297D02*
X15899144Y-12957440D01*
X16327715Y-12709821D02*
X16346763Y-12709821D01*
X16346763Y-12709821D02*
X16365811Y-12719345D01*
X16365811Y-12719345D02*
X16375334Y-12728869D01*
X16375334Y-12728869D02*
X16384858Y-12747916D01*
X16384858Y-12747916D02*
X16394382Y-12786011D01*
X16394382Y-12786011D02*
X16394382Y-12833631D01*
X16394382Y-12833631D02*
X16384858Y-12871726D01*
X16384858Y-12871726D02*
X16375334Y-12890773D01*
X16375334Y-12890773D02*
X16365811Y-12900297D01*
X16365811Y-12900297D02*
X16346763Y-12909821D01*
X16346763Y-12909821D02*
X16327715Y-12909821D01*
X16327715Y-12909821D02*
X16308668Y-12900297D01*
X16308668Y-12900297D02*
X16299144Y-12890773D01*
X16299144Y-12890773D02*
X16289620Y-12871726D01*
X16289620Y-12871726D02*
X16280096Y-12833631D01*
X16280096Y-12833631D02*
X16280096Y-12786011D01*
X16280096Y-12786011D02*
X16289620Y-12747916D01*
X16289620Y-12747916D02*
X16299144Y-12728869D01*
X16299144Y-12728869D02*
X16308668Y-12719345D01*
X16308668Y-12719345D02*
X16327715Y-12709821D01*
X16480096Y-12890773D02*
X16489620Y-12900297D01*
X16489620Y-12900297D02*
X16480096Y-12909821D01*
X16480096Y-12909821D02*
X16470573Y-12900297D01*
X16470573Y-12900297D02*
X16480096Y-12890773D01*
X16480096Y-12890773D02*
X16480096Y-12909821D01*
X16613430Y-12709821D02*
X16632477Y-12709821D01*
X16632477Y-12709821D02*
X16651525Y-12719345D01*
X16651525Y-12719345D02*
X16661049Y-12728869D01*
X16661049Y-12728869D02*
X16670573Y-12747916D01*
X16670573Y-12747916D02*
X16680096Y-12786011D01*
X16680096Y-12786011D02*
X16680096Y-12833631D01*
X16680096Y-12833631D02*
X16670573Y-12871726D01*
X16670573Y-12871726D02*
X16661049Y-12890773D01*
X16661049Y-12890773D02*
X16651525Y-12900297D01*
X16651525Y-12900297D02*
X16632477Y-12909821D01*
X16632477Y-12909821D02*
X16613430Y-12909821D01*
X16613430Y-12909821D02*
X16594382Y-12900297D01*
X16594382Y-12900297D02*
X16584858Y-12890773D01*
X16584858Y-12890773D02*
X16575334Y-12871726D01*
X16575334Y-12871726D02*
X16565811Y-12833631D01*
X16565811Y-12833631D02*
X16565811Y-12786011D01*
X16565811Y-12786011D02*
X16575334Y-12747916D01*
X16575334Y-12747916D02*
X16584858Y-12728869D01*
X16584858Y-12728869D02*
X16594382Y-12719345D01*
X16594382Y-12719345D02*
X16613430Y-12709821D01*
X16756287Y-12728869D02*
X16765811Y-12719345D01*
X16765811Y-12719345D02*
X16784858Y-12709821D01*
X16784858Y-12709821D02*
X16832477Y-12709821D01*
X16832477Y-12709821D02*
X16851525Y-12719345D01*
X16851525Y-12719345D02*
X16861049Y-12728869D01*
X16861049Y-12728869D02*
X16870573Y-12747916D01*
X16870573Y-12747916D02*
X16870573Y-12766964D01*
X16870573Y-12766964D02*
X16861049Y-12795535D01*
X16861049Y-12795535D02*
X16746763Y-12909821D01*
X16746763Y-12909821D02*
X16870573Y-12909821D01*
X16937239Y-12709821D02*
X17070573Y-12709821D01*
X17070573Y-12709821D02*
X16984858Y-12909821D01*
X17232477Y-12709821D02*
X17194382Y-12709821D01*
X17194382Y-12709821D02*
X17175335Y-12719345D01*
X17175335Y-12719345D02*
X17165811Y-12728869D01*
X17165811Y-12728869D02*
X17146763Y-12757440D01*
X17146763Y-12757440D02*
X17137239Y-12795535D01*
X17137239Y-12795535D02*
X17137239Y-12871726D01*
X17137239Y-12871726D02*
X17146763Y-12890773D01*
X17146763Y-12890773D02*
X17156287Y-12900297D01*
X17156287Y-12900297D02*
X17175335Y-12909821D01*
X17175335Y-12909821D02*
X17213430Y-12909821D01*
X17213430Y-12909821D02*
X17232477Y-12900297D01*
X17232477Y-12900297D02*
X17242001Y-12890773D01*
X17242001Y-12890773D02*
X17251525Y-12871726D01*
X17251525Y-12871726D02*
X17251525Y-12824107D01*
X17251525Y-12824107D02*
X17242001Y-12805059D01*
X17242001Y-12805059D02*
X17232477Y-12795535D01*
X17232477Y-12795535D02*
X17213430Y-12786011D01*
X17213430Y-12786011D02*
X17175335Y-12786011D01*
X17175335Y-12786011D02*
X17156287Y-12795535D01*
X17156287Y-12795535D02*
X17146763Y-12805059D01*
X17146763Y-12805059D02*
X17137239Y-12824107D01*
X17327716Y-12709821D02*
X17327716Y-12747916D01*
X17403906Y-12709821D02*
X17403906Y-12747916D01*
X17699144Y-12986011D02*
X17689620Y-12976488D01*
X17689620Y-12976488D02*
X17670573Y-12947916D01*
X17670573Y-12947916D02*
X17661049Y-12928869D01*
X17661049Y-12928869D02*
X17651525Y-12900297D01*
X17651525Y-12900297D02*
X17642001Y-12852678D01*
X17642001Y-12852678D02*
X17642001Y-12814583D01*
X17642001Y-12814583D02*
X17651525Y-12766964D01*
X17651525Y-12766964D02*
X17661049Y-12738392D01*
X17661049Y-12738392D02*
X17670573Y-12719345D01*
X17670573Y-12719345D02*
X17689620Y-12690773D01*
X17689620Y-12690773D02*
X17699144Y-12681250D01*
X17756287Y-12709821D02*
X17880097Y-12709821D01*
X17880097Y-12709821D02*
X17813430Y-12786011D01*
X17813430Y-12786011D02*
X17842001Y-12786011D01*
X17842001Y-12786011D02*
X17861049Y-12795535D01*
X17861049Y-12795535D02*
X17870573Y-12805059D01*
X17870573Y-12805059D02*
X17880097Y-12824107D01*
X17880097Y-12824107D02*
X17880097Y-12871726D01*
X17880097Y-12871726D02*
X17870573Y-12890773D01*
X17870573Y-12890773D02*
X17861049Y-12900297D01*
X17861049Y-12900297D02*
X17842001Y-12909821D01*
X17842001Y-12909821D02*
X17784858Y-12909821D01*
X17784858Y-12909821D02*
X17765811Y-12900297D01*
X17765811Y-12900297D02*
X17756287Y-12890773D01*
X18118192Y-12909821D02*
X18118192Y-12709821D01*
X18203906Y-12909821D02*
X18203906Y-12805059D01*
X18203906Y-12805059D02*
X18194382Y-12786011D01*
X18194382Y-12786011D02*
X18175335Y-12776488D01*
X18175335Y-12776488D02*
X18146763Y-12776488D01*
X18146763Y-12776488D02*
X18127716Y-12786011D01*
X18127716Y-12786011D02*
X18118192Y-12795535D01*
X18327716Y-12909821D02*
X18308668Y-12900297D01*
X18308668Y-12900297D02*
X18299144Y-12890773D01*
X18299144Y-12890773D02*
X18289620Y-12871726D01*
X18289620Y-12871726D02*
X18289620Y-12814583D01*
X18289620Y-12814583D02*
X18299144Y-12795535D01*
X18299144Y-12795535D02*
X18308668Y-12786011D01*
X18308668Y-12786011D02*
X18327716Y-12776488D01*
X18327716Y-12776488D02*
X18356287Y-12776488D01*
X18356287Y-12776488D02*
X18375335Y-12786011D01*
X18375335Y-12786011D02*
X18384859Y-12795535D01*
X18384859Y-12795535D02*
X18394382Y-12814583D01*
X18394382Y-12814583D02*
X18394382Y-12871726D01*
X18394382Y-12871726D02*
X18384859Y-12890773D01*
X18384859Y-12890773D02*
X18375335Y-12900297D01*
X18375335Y-12900297D02*
X18356287Y-12909821D01*
X18356287Y-12909821D02*
X18327716Y-12909821D01*
X18508668Y-12909821D02*
X18489620Y-12900297D01*
X18489620Y-12900297D02*
X18480097Y-12881250D01*
X18480097Y-12881250D02*
X18480097Y-12709821D01*
X18661049Y-12900297D02*
X18642001Y-12909821D01*
X18642001Y-12909821D02*
X18603906Y-12909821D01*
X18603906Y-12909821D02*
X18584859Y-12900297D01*
X18584859Y-12900297D02*
X18575335Y-12881250D01*
X18575335Y-12881250D02*
X18575335Y-12805059D01*
X18575335Y-12805059D02*
X18584859Y-12786011D01*
X18584859Y-12786011D02*
X18603906Y-12776488D01*
X18603906Y-12776488D02*
X18642001Y-12776488D01*
X18642001Y-12776488D02*
X18661049Y-12786011D01*
X18661049Y-12786011D02*
X18670573Y-12805059D01*
X18670573Y-12805059D02*
X18670573Y-12824107D01*
X18670573Y-12824107D02*
X18575335Y-12843154D01*
X18746763Y-12900297D02*
X18765811Y-12909821D01*
X18765811Y-12909821D02*
X18803906Y-12909821D01*
X18803906Y-12909821D02*
X18822954Y-12900297D01*
X18822954Y-12900297D02*
X18832478Y-12881250D01*
X18832478Y-12881250D02*
X18832478Y-12871726D01*
X18832478Y-12871726D02*
X18822954Y-12852678D01*
X18822954Y-12852678D02*
X18803906Y-12843154D01*
X18803906Y-12843154D02*
X18775335Y-12843154D01*
X18775335Y-12843154D02*
X18756287Y-12833631D01*
X18756287Y-12833631D02*
X18746763Y-12814583D01*
X18746763Y-12814583D02*
X18746763Y-12805059D01*
X18746763Y-12805059D02*
X18756287Y-12786011D01*
X18756287Y-12786011D02*
X18775335Y-12776488D01*
X18775335Y-12776488D02*
X18803906Y-12776488D01*
X18803906Y-12776488D02*
X18822954Y-12786011D01*
X18899144Y-12986011D02*
X18908668Y-12976488D01*
X18908668Y-12976488D02*
X18927716Y-12947916D01*
X18927716Y-12947916D02*
X18937240Y-12928869D01*
X18937240Y-12928869D02*
X18946763Y-12900297D01*
X18946763Y-12900297D02*
X18956287Y-12852678D01*
X18956287Y-12852678D02*
X18956287Y-12814583D01*
X18956287Y-12814583D02*
X18946763Y-12766964D01*
X18946763Y-12766964D02*
X18937240Y-12738392D01*
X18937240Y-12738392D02*
X18927716Y-12719345D01*
X18927716Y-12719345D02*
X18908668Y-12690773D01*
X18908668Y-12690773D02*
X18899144Y-12681250D01*
D12*
X14084081Y-13042337D02*
X14084081Y-13122337D01*
X14044081Y-13082337D02*
X14124081Y-13082337D01*
D11*
X14422953Y-12973821D02*
X14442001Y-12973821D01*
X14442001Y-12973821D02*
X14461049Y-12983345D01*
X14461049Y-12983345D02*
X14470572Y-12992869D01*
X14470572Y-12992869D02*
X14480096Y-13011916D01*
X14480096Y-13011916D02*
X14489620Y-13050011D01*
X14489620Y-13050011D02*
X14489620Y-13097631D01*
X14489620Y-13097631D02*
X14480096Y-13135726D01*
X14480096Y-13135726D02*
X14470572Y-13154773D01*
X14470572Y-13154773D02*
X14461049Y-13164297D01*
X14461049Y-13164297D02*
X14442001Y-13173821D01*
X14442001Y-13173821D02*
X14422953Y-13173821D01*
X14422953Y-13173821D02*
X14403906Y-13164297D01*
X14403906Y-13164297D02*
X14394382Y-13154773D01*
X14394382Y-13154773D02*
X14384858Y-13135726D01*
X14384858Y-13135726D02*
X14375334Y-13097631D01*
X14375334Y-13097631D02*
X14375334Y-13050011D01*
X14375334Y-13050011D02*
X14384858Y-13011916D01*
X14384858Y-13011916D02*
X14394382Y-12992869D01*
X14394382Y-12992869D02*
X14403906Y-12983345D01*
X14403906Y-12983345D02*
X14422953Y-12973821D01*
X14575334Y-13154773D02*
X14584858Y-13164297D01*
X14584858Y-13164297D02*
X14575334Y-13173821D01*
X14575334Y-13173821D02*
X14565810Y-13164297D01*
X14565810Y-13164297D02*
X14575334Y-13154773D01*
X14575334Y-13154773D02*
X14575334Y-13173821D01*
X14699144Y-13059535D02*
X14680096Y-13050011D01*
X14680096Y-13050011D02*
X14670572Y-13040488D01*
X14670572Y-13040488D02*
X14661049Y-13021440D01*
X14661049Y-13021440D02*
X14661049Y-13011916D01*
X14661049Y-13011916D02*
X14670572Y-12992869D01*
X14670572Y-12992869D02*
X14680096Y-12983345D01*
X14680096Y-12983345D02*
X14699144Y-12973821D01*
X14699144Y-12973821D02*
X14737239Y-12973821D01*
X14737239Y-12973821D02*
X14756287Y-12983345D01*
X14756287Y-12983345D02*
X14765810Y-12992869D01*
X14765810Y-12992869D02*
X14775334Y-13011916D01*
X14775334Y-13011916D02*
X14775334Y-13021440D01*
X14775334Y-13021440D02*
X14765810Y-13040488D01*
X14765810Y-13040488D02*
X14756287Y-13050011D01*
X14756287Y-13050011D02*
X14737239Y-13059535D01*
X14737239Y-13059535D02*
X14699144Y-13059535D01*
X14699144Y-13059535D02*
X14680096Y-13069059D01*
X14680096Y-13069059D02*
X14670572Y-13078583D01*
X14670572Y-13078583D02*
X14661049Y-13097631D01*
X14661049Y-13097631D02*
X14661049Y-13135726D01*
X14661049Y-13135726D02*
X14670572Y-13154773D01*
X14670572Y-13154773D02*
X14680096Y-13164297D01*
X14680096Y-13164297D02*
X14699144Y-13173821D01*
X14699144Y-13173821D02*
X14737239Y-13173821D01*
X14737239Y-13173821D02*
X14756287Y-13164297D01*
X14756287Y-13164297D02*
X14765810Y-13154773D01*
X14765810Y-13154773D02*
X14775334Y-13135726D01*
X14775334Y-13135726D02*
X14775334Y-13097631D01*
X14775334Y-13097631D02*
X14765810Y-13078583D01*
X14765810Y-13078583D02*
X14756287Y-13069059D01*
X14756287Y-13069059D02*
X14737239Y-13059535D01*
X14899144Y-12973821D02*
X14918191Y-12973821D01*
X14918191Y-12973821D02*
X14937239Y-12983345D01*
X14937239Y-12983345D02*
X14946763Y-12992869D01*
X14946763Y-12992869D02*
X14956287Y-13011916D01*
X14956287Y-13011916D02*
X14965810Y-13050011D01*
X14965810Y-13050011D02*
X14965810Y-13097631D01*
X14965810Y-13097631D02*
X14956287Y-13135726D01*
X14956287Y-13135726D02*
X14946763Y-13154773D01*
X14946763Y-13154773D02*
X14937239Y-13164297D01*
X14937239Y-13164297D02*
X14918191Y-13173821D01*
X14918191Y-13173821D02*
X14899144Y-13173821D01*
X14899144Y-13173821D02*
X14880096Y-13164297D01*
X14880096Y-13164297D02*
X14870572Y-13154773D01*
X14870572Y-13154773D02*
X14861049Y-13135726D01*
X14861049Y-13135726D02*
X14851525Y-13097631D01*
X14851525Y-13097631D02*
X14851525Y-13050011D01*
X14851525Y-13050011D02*
X14861049Y-13011916D01*
X14861049Y-13011916D02*
X14870572Y-12992869D01*
X14870572Y-12992869D02*
X14880096Y-12983345D01*
X14880096Y-12983345D02*
X14899144Y-12973821D01*
X15089620Y-12973821D02*
X15108668Y-12973821D01*
X15108668Y-12973821D02*
X15127715Y-12983345D01*
X15127715Y-12983345D02*
X15137239Y-12992869D01*
X15137239Y-12992869D02*
X15146763Y-13011916D01*
X15146763Y-13011916D02*
X15156287Y-13050011D01*
X15156287Y-13050011D02*
X15156287Y-13097631D01*
X15156287Y-13097631D02*
X15146763Y-13135726D01*
X15146763Y-13135726D02*
X15137239Y-13154773D01*
X15137239Y-13154773D02*
X15127715Y-13164297D01*
X15127715Y-13164297D02*
X15108668Y-13173821D01*
X15108668Y-13173821D02*
X15089620Y-13173821D01*
X15089620Y-13173821D02*
X15070572Y-13164297D01*
X15070572Y-13164297D02*
X15061049Y-13154773D01*
X15061049Y-13154773D02*
X15051525Y-13135726D01*
X15051525Y-13135726D02*
X15042001Y-13097631D01*
X15042001Y-13097631D02*
X15042001Y-13050011D01*
X15042001Y-13050011D02*
X15051525Y-13011916D01*
X15051525Y-13011916D02*
X15061049Y-12992869D01*
X15061049Y-12992869D02*
X15070572Y-12983345D01*
X15070572Y-12983345D02*
X15089620Y-12973821D01*
X15242001Y-13173821D02*
X15242001Y-13040488D01*
X15242001Y-13059535D02*
X15251525Y-13050011D01*
X15251525Y-13050011D02*
X15270572Y-13040488D01*
X15270572Y-13040488D02*
X15299144Y-13040488D01*
X15299144Y-13040488D02*
X15318191Y-13050011D01*
X15318191Y-13050011D02*
X15327715Y-13069059D01*
X15327715Y-13069059D02*
X15327715Y-13173821D01*
X15327715Y-13069059D02*
X15337239Y-13050011D01*
X15337239Y-13050011D02*
X15356287Y-13040488D01*
X15356287Y-13040488D02*
X15384858Y-13040488D01*
X15384858Y-13040488D02*
X15403906Y-13050011D01*
X15403906Y-13050011D02*
X15413430Y-13069059D01*
X15413430Y-13069059D02*
X15413430Y-13173821D01*
X15508668Y-13173821D02*
X15508668Y-13040488D01*
X15508668Y-13059535D02*
X15518191Y-13050011D01*
X15518191Y-13050011D02*
X15537239Y-13040488D01*
X15537239Y-13040488D02*
X15565811Y-13040488D01*
X15565811Y-13040488D02*
X15584858Y-13050011D01*
X15584858Y-13050011D02*
X15594382Y-13069059D01*
X15594382Y-13069059D02*
X15594382Y-13173821D01*
X15594382Y-13069059D02*
X15603906Y-13050011D01*
X15603906Y-13050011D02*
X15622953Y-13040488D01*
X15622953Y-13040488D02*
X15651525Y-13040488D01*
X15651525Y-13040488D02*
X15670572Y-13050011D01*
X15670572Y-13050011D02*
X15680096Y-13069059D01*
X15680096Y-13069059D02*
X15680096Y-13173821D01*
X16070572Y-12964297D02*
X15899144Y-13221440D01*
X16327715Y-12973821D02*
X16346763Y-12973821D01*
X16346763Y-12973821D02*
X16365811Y-12983345D01*
X16365811Y-12983345D02*
X16375334Y-12992869D01*
X16375334Y-12992869D02*
X16384858Y-13011916D01*
X16384858Y-13011916D02*
X16394382Y-13050011D01*
X16394382Y-13050011D02*
X16394382Y-13097631D01*
X16394382Y-13097631D02*
X16384858Y-13135726D01*
X16384858Y-13135726D02*
X16375334Y-13154773D01*
X16375334Y-13154773D02*
X16365811Y-13164297D01*
X16365811Y-13164297D02*
X16346763Y-13173821D01*
X16346763Y-13173821D02*
X16327715Y-13173821D01*
X16327715Y-13173821D02*
X16308668Y-13164297D01*
X16308668Y-13164297D02*
X16299144Y-13154773D01*
X16299144Y-13154773D02*
X16289620Y-13135726D01*
X16289620Y-13135726D02*
X16280096Y-13097631D01*
X16280096Y-13097631D02*
X16280096Y-13050011D01*
X16280096Y-13050011D02*
X16289620Y-13011916D01*
X16289620Y-13011916D02*
X16299144Y-12992869D01*
X16299144Y-12992869D02*
X16308668Y-12983345D01*
X16308668Y-12983345D02*
X16327715Y-12973821D01*
X16480096Y-13154773D02*
X16489620Y-13164297D01*
X16489620Y-13164297D02*
X16480096Y-13173821D01*
X16480096Y-13173821D02*
X16470573Y-13164297D01*
X16470573Y-13164297D02*
X16480096Y-13154773D01*
X16480096Y-13154773D02*
X16480096Y-13173821D01*
X16613430Y-12973821D02*
X16632477Y-12973821D01*
X16632477Y-12973821D02*
X16651525Y-12983345D01*
X16651525Y-12983345D02*
X16661049Y-12992869D01*
X16661049Y-12992869D02*
X16670573Y-13011916D01*
X16670573Y-13011916D02*
X16680096Y-13050011D01*
X16680096Y-13050011D02*
X16680096Y-13097631D01*
X16680096Y-13097631D02*
X16670573Y-13135726D01*
X16670573Y-13135726D02*
X16661049Y-13154773D01*
X16661049Y-13154773D02*
X16651525Y-13164297D01*
X16651525Y-13164297D02*
X16632477Y-13173821D01*
X16632477Y-13173821D02*
X16613430Y-13173821D01*
X16613430Y-13173821D02*
X16594382Y-13164297D01*
X16594382Y-13164297D02*
X16584858Y-13154773D01*
X16584858Y-13154773D02*
X16575334Y-13135726D01*
X16575334Y-13135726D02*
X16565811Y-13097631D01*
X16565811Y-13097631D02*
X16565811Y-13050011D01*
X16565811Y-13050011D02*
X16575334Y-13011916D01*
X16575334Y-13011916D02*
X16584858Y-12992869D01*
X16584858Y-12992869D02*
X16594382Y-12983345D01*
X16594382Y-12983345D02*
X16613430Y-12973821D01*
X16746763Y-12973821D02*
X16870573Y-12973821D01*
X16870573Y-12973821D02*
X16803906Y-13050011D01*
X16803906Y-13050011D02*
X16832477Y-13050011D01*
X16832477Y-13050011D02*
X16851525Y-13059535D01*
X16851525Y-13059535D02*
X16861049Y-13069059D01*
X16861049Y-13069059D02*
X16870573Y-13088107D01*
X16870573Y-13088107D02*
X16870573Y-13135726D01*
X16870573Y-13135726D02*
X16861049Y-13154773D01*
X16861049Y-13154773D02*
X16851525Y-13164297D01*
X16851525Y-13164297D02*
X16832477Y-13173821D01*
X16832477Y-13173821D02*
X16775334Y-13173821D01*
X16775334Y-13173821D02*
X16756287Y-13164297D01*
X16756287Y-13164297D02*
X16746763Y-13154773D01*
X17061049Y-13173821D02*
X16946763Y-13173821D01*
X17003906Y-13173821D02*
X17003906Y-12973821D01*
X17003906Y-12973821D02*
X16984858Y-13002392D01*
X16984858Y-13002392D02*
X16965811Y-13021440D01*
X16965811Y-13021440D02*
X16946763Y-13030964D01*
X17242001Y-12973821D02*
X17146763Y-12973821D01*
X17146763Y-12973821D02*
X17137239Y-13069059D01*
X17137239Y-13069059D02*
X17146763Y-13059535D01*
X17146763Y-13059535D02*
X17165811Y-13050011D01*
X17165811Y-13050011D02*
X17213430Y-13050011D01*
X17213430Y-13050011D02*
X17232477Y-13059535D01*
X17232477Y-13059535D02*
X17242001Y-13069059D01*
X17242001Y-13069059D02*
X17251525Y-13088107D01*
X17251525Y-13088107D02*
X17251525Y-13135726D01*
X17251525Y-13135726D02*
X17242001Y-13154773D01*
X17242001Y-13154773D02*
X17232477Y-13164297D01*
X17232477Y-13164297D02*
X17213430Y-13173821D01*
X17213430Y-13173821D02*
X17165811Y-13173821D01*
X17165811Y-13173821D02*
X17146763Y-13164297D01*
X17146763Y-13164297D02*
X17137239Y-13154773D01*
X17327716Y-12973821D02*
X17327716Y-13011916D01*
X17403906Y-12973821D02*
X17403906Y-13011916D01*
X17699144Y-13250011D02*
X17689620Y-13240488D01*
X17689620Y-13240488D02*
X17670573Y-13211916D01*
X17670573Y-13211916D02*
X17661049Y-13192869D01*
X17661049Y-13192869D02*
X17651525Y-13164297D01*
X17651525Y-13164297D02*
X17642001Y-13116678D01*
X17642001Y-13116678D02*
X17642001Y-13078583D01*
X17642001Y-13078583D02*
X17651525Y-13030964D01*
X17651525Y-13030964D02*
X17661049Y-13002392D01*
X17661049Y-13002392D02*
X17670573Y-12983345D01*
X17670573Y-12983345D02*
X17689620Y-12954773D01*
X17689620Y-12954773D02*
X17699144Y-12945250D01*
X17765811Y-12992869D02*
X17775335Y-12983345D01*
X17775335Y-12983345D02*
X17794382Y-12973821D01*
X17794382Y-12973821D02*
X17842001Y-12973821D01*
X17842001Y-12973821D02*
X17861049Y-12983345D01*
X17861049Y-12983345D02*
X17870573Y-12992869D01*
X17870573Y-12992869D02*
X17880097Y-13011916D01*
X17880097Y-13011916D02*
X17880097Y-13030964D01*
X17880097Y-13030964D02*
X17870573Y-13059535D01*
X17870573Y-13059535D02*
X17756287Y-13173821D01*
X17756287Y-13173821D02*
X17880097Y-13173821D01*
X18118192Y-13173821D02*
X18118192Y-12973821D01*
X18203906Y-13173821D02*
X18203906Y-13069059D01*
X18203906Y-13069059D02*
X18194382Y-13050011D01*
X18194382Y-13050011D02*
X18175335Y-13040488D01*
X18175335Y-13040488D02*
X18146763Y-13040488D01*
X18146763Y-13040488D02*
X18127716Y-13050011D01*
X18127716Y-13050011D02*
X18118192Y-13059535D01*
X18327716Y-13173821D02*
X18308668Y-13164297D01*
X18308668Y-13164297D02*
X18299144Y-13154773D01*
X18299144Y-13154773D02*
X18289620Y-13135726D01*
X18289620Y-13135726D02*
X18289620Y-13078583D01*
X18289620Y-13078583D02*
X18299144Y-13059535D01*
X18299144Y-13059535D02*
X18308668Y-13050011D01*
X18308668Y-13050011D02*
X18327716Y-13040488D01*
X18327716Y-13040488D02*
X18356287Y-13040488D01*
X18356287Y-13040488D02*
X18375335Y-13050011D01*
X18375335Y-13050011D02*
X18384859Y-13059535D01*
X18384859Y-13059535D02*
X18394382Y-13078583D01*
X18394382Y-13078583D02*
X18394382Y-13135726D01*
X18394382Y-13135726D02*
X18384859Y-13154773D01*
X18384859Y-13154773D02*
X18375335Y-13164297D01*
X18375335Y-13164297D02*
X18356287Y-13173821D01*
X18356287Y-13173821D02*
X18327716Y-13173821D01*
X18508668Y-13173821D02*
X18489620Y-13164297D01*
X18489620Y-13164297D02*
X18480097Y-13145250D01*
X18480097Y-13145250D02*
X18480097Y-12973821D01*
X18661049Y-13164297D02*
X18642001Y-13173821D01*
X18642001Y-13173821D02*
X18603906Y-13173821D01*
X18603906Y-13173821D02*
X18584859Y-13164297D01*
X18584859Y-13164297D02*
X18575335Y-13145250D01*
X18575335Y-13145250D02*
X18575335Y-13069059D01*
X18575335Y-13069059D02*
X18584859Y-13050011D01*
X18584859Y-13050011D02*
X18603906Y-13040488D01*
X18603906Y-13040488D02*
X18642001Y-13040488D01*
X18642001Y-13040488D02*
X18661049Y-13050011D01*
X18661049Y-13050011D02*
X18670573Y-13069059D01*
X18670573Y-13069059D02*
X18670573Y-13088107D01*
X18670573Y-13088107D02*
X18575335Y-13107154D01*
X18746763Y-13164297D02*
X18765811Y-13173821D01*
X18765811Y-13173821D02*
X18803906Y-13173821D01*
X18803906Y-13173821D02*
X18822954Y-13164297D01*
X18822954Y-13164297D02*
X18832478Y-13145250D01*
X18832478Y-13145250D02*
X18832478Y-13135726D01*
X18832478Y-13135726D02*
X18822954Y-13116678D01*
X18822954Y-13116678D02*
X18803906Y-13107154D01*
X18803906Y-13107154D02*
X18775335Y-13107154D01*
X18775335Y-13107154D02*
X18756287Y-13097631D01*
X18756287Y-13097631D02*
X18746763Y-13078583D01*
X18746763Y-13078583D02*
X18746763Y-13069059D01*
X18746763Y-13069059D02*
X18756287Y-13050011D01*
X18756287Y-13050011D02*
X18775335Y-13040488D01*
X18775335Y-13040488D02*
X18803906Y-13040488D01*
X18803906Y-13040488D02*
X18822954Y-13050011D01*
X18899144Y-13250011D02*
X18908668Y-13240488D01*
X18908668Y-13240488D02*
X18927716Y-13211916D01*
X18927716Y-13211916D02*
X18937240Y-13192869D01*
X18937240Y-13192869D02*
X18946763Y-13164297D01*
X18946763Y-13164297D02*
X18956287Y-13116678D01*
X18956287Y-13116678D02*
X18956287Y-13078583D01*
X18956287Y-13078583D02*
X18946763Y-13030964D01*
X18946763Y-13030964D02*
X18937240Y-13002392D01*
X18937240Y-13002392D02*
X18927716Y-12983345D01*
X18927716Y-12983345D02*
X18908668Y-12954773D01*
X18908668Y-12954773D02*
X18899144Y-12945250D01*
D12*
X14109437Y-13381693D02*
X14109437Y-13310982D01*
X14038726Y-13310982D01*
X14038726Y-13381693D01*
X14109437Y-13381693D01*
D11*
X14489620Y-13437821D02*
X14375334Y-13437821D01*
X14432477Y-13437821D02*
X14432477Y-13237821D01*
X14432477Y-13237821D02*
X14413429Y-13266392D01*
X14413429Y-13266392D02*
X14394382Y-13285440D01*
X14394382Y-13285440D02*
X14375334Y-13294964D01*
X14575334Y-13418773D02*
X14584858Y-13428297D01*
X14584858Y-13428297D02*
X14575334Y-13437821D01*
X14575334Y-13437821D02*
X14565810Y-13428297D01*
X14565810Y-13428297D02*
X14575334Y-13418773D01*
X14575334Y-13418773D02*
X14575334Y-13437821D01*
X14708668Y-13237821D02*
X14727715Y-13237821D01*
X14727715Y-13237821D02*
X14746763Y-13247345D01*
X14746763Y-13247345D02*
X14756287Y-13256869D01*
X14756287Y-13256869D02*
X14765810Y-13275916D01*
X14765810Y-13275916D02*
X14775334Y-13314011D01*
X14775334Y-13314011D02*
X14775334Y-13361631D01*
X14775334Y-13361631D02*
X14765810Y-13399726D01*
X14765810Y-13399726D02*
X14756287Y-13418773D01*
X14756287Y-13418773D02*
X14746763Y-13428297D01*
X14746763Y-13428297D02*
X14727715Y-13437821D01*
X14727715Y-13437821D02*
X14708668Y-13437821D01*
X14708668Y-13437821D02*
X14689620Y-13428297D01*
X14689620Y-13428297D02*
X14680096Y-13418773D01*
X14680096Y-13418773D02*
X14670572Y-13399726D01*
X14670572Y-13399726D02*
X14661049Y-13361631D01*
X14661049Y-13361631D02*
X14661049Y-13314011D01*
X14661049Y-13314011D02*
X14670572Y-13275916D01*
X14670572Y-13275916D02*
X14680096Y-13256869D01*
X14680096Y-13256869D02*
X14689620Y-13247345D01*
X14689620Y-13247345D02*
X14708668Y-13237821D01*
X14899144Y-13237821D02*
X14918191Y-13237821D01*
X14918191Y-13237821D02*
X14937239Y-13247345D01*
X14937239Y-13247345D02*
X14946763Y-13256869D01*
X14946763Y-13256869D02*
X14956287Y-13275916D01*
X14956287Y-13275916D02*
X14965810Y-13314011D01*
X14965810Y-13314011D02*
X14965810Y-13361631D01*
X14965810Y-13361631D02*
X14956287Y-13399726D01*
X14956287Y-13399726D02*
X14946763Y-13418773D01*
X14946763Y-13418773D02*
X14937239Y-13428297D01*
X14937239Y-13428297D02*
X14918191Y-13437821D01*
X14918191Y-13437821D02*
X14899144Y-13437821D01*
X14899144Y-13437821D02*
X14880096Y-13428297D01*
X14880096Y-13428297D02*
X14870572Y-13418773D01*
X14870572Y-13418773D02*
X14861049Y-13399726D01*
X14861049Y-13399726D02*
X14851525Y-13361631D01*
X14851525Y-13361631D02*
X14851525Y-13314011D01*
X14851525Y-13314011D02*
X14861049Y-13275916D01*
X14861049Y-13275916D02*
X14870572Y-13256869D01*
X14870572Y-13256869D02*
X14880096Y-13247345D01*
X14880096Y-13247345D02*
X14899144Y-13237821D01*
X15089620Y-13237821D02*
X15108668Y-13237821D01*
X15108668Y-13237821D02*
X15127715Y-13247345D01*
X15127715Y-13247345D02*
X15137239Y-13256869D01*
X15137239Y-13256869D02*
X15146763Y-13275916D01*
X15146763Y-13275916D02*
X15156287Y-13314011D01*
X15156287Y-13314011D02*
X15156287Y-13361631D01*
X15156287Y-13361631D02*
X15146763Y-13399726D01*
X15146763Y-13399726D02*
X15137239Y-13418773D01*
X15137239Y-13418773D02*
X15127715Y-13428297D01*
X15127715Y-13428297D02*
X15108668Y-13437821D01*
X15108668Y-13437821D02*
X15089620Y-13437821D01*
X15089620Y-13437821D02*
X15070572Y-13428297D01*
X15070572Y-13428297D02*
X15061049Y-13418773D01*
X15061049Y-13418773D02*
X15051525Y-13399726D01*
X15051525Y-13399726D02*
X15042001Y-13361631D01*
X15042001Y-13361631D02*
X15042001Y-13314011D01*
X15042001Y-13314011D02*
X15051525Y-13275916D01*
X15051525Y-13275916D02*
X15061049Y-13256869D01*
X15061049Y-13256869D02*
X15070572Y-13247345D01*
X15070572Y-13247345D02*
X15089620Y-13237821D01*
X15242001Y-13437821D02*
X15242001Y-13304488D01*
X15242001Y-13323535D02*
X15251525Y-13314011D01*
X15251525Y-13314011D02*
X15270572Y-13304488D01*
X15270572Y-13304488D02*
X15299144Y-13304488D01*
X15299144Y-13304488D02*
X15318191Y-13314011D01*
X15318191Y-13314011D02*
X15327715Y-13333059D01*
X15327715Y-13333059D02*
X15327715Y-13437821D01*
X15327715Y-13333059D02*
X15337239Y-13314011D01*
X15337239Y-13314011D02*
X15356287Y-13304488D01*
X15356287Y-13304488D02*
X15384858Y-13304488D01*
X15384858Y-13304488D02*
X15403906Y-13314011D01*
X15403906Y-13314011D02*
X15413430Y-13333059D01*
X15413430Y-13333059D02*
X15413430Y-13437821D01*
X15508668Y-13437821D02*
X15508668Y-13304488D01*
X15508668Y-13323535D02*
X15518191Y-13314011D01*
X15518191Y-13314011D02*
X15537239Y-13304488D01*
X15537239Y-13304488D02*
X15565811Y-13304488D01*
X15565811Y-13304488D02*
X15584858Y-13314011D01*
X15584858Y-13314011D02*
X15594382Y-13333059D01*
X15594382Y-13333059D02*
X15594382Y-13437821D01*
X15594382Y-13333059D02*
X15603906Y-13314011D01*
X15603906Y-13314011D02*
X15622953Y-13304488D01*
X15622953Y-13304488D02*
X15651525Y-13304488D01*
X15651525Y-13304488D02*
X15670572Y-13314011D01*
X15670572Y-13314011D02*
X15680096Y-13333059D01*
X15680096Y-13333059D02*
X15680096Y-13437821D01*
X16070572Y-13228297D02*
X15899144Y-13485440D01*
X16327715Y-13237821D02*
X16346763Y-13237821D01*
X16346763Y-13237821D02*
X16365811Y-13247345D01*
X16365811Y-13247345D02*
X16375334Y-13256869D01*
X16375334Y-13256869D02*
X16384858Y-13275916D01*
X16384858Y-13275916D02*
X16394382Y-13314011D01*
X16394382Y-13314011D02*
X16394382Y-13361631D01*
X16394382Y-13361631D02*
X16384858Y-13399726D01*
X16384858Y-13399726D02*
X16375334Y-13418773D01*
X16375334Y-13418773D02*
X16365811Y-13428297D01*
X16365811Y-13428297D02*
X16346763Y-13437821D01*
X16346763Y-13437821D02*
X16327715Y-13437821D01*
X16327715Y-13437821D02*
X16308668Y-13428297D01*
X16308668Y-13428297D02*
X16299144Y-13418773D01*
X16299144Y-13418773D02*
X16289620Y-13399726D01*
X16289620Y-13399726D02*
X16280096Y-13361631D01*
X16280096Y-13361631D02*
X16280096Y-13314011D01*
X16280096Y-13314011D02*
X16289620Y-13275916D01*
X16289620Y-13275916D02*
X16299144Y-13256869D01*
X16299144Y-13256869D02*
X16308668Y-13247345D01*
X16308668Y-13247345D02*
X16327715Y-13237821D01*
X16480096Y-13418773D02*
X16489620Y-13428297D01*
X16489620Y-13428297D02*
X16480096Y-13437821D01*
X16480096Y-13437821D02*
X16470573Y-13428297D01*
X16470573Y-13428297D02*
X16480096Y-13418773D01*
X16480096Y-13418773D02*
X16480096Y-13437821D01*
X16613430Y-13237821D02*
X16632477Y-13237821D01*
X16632477Y-13237821D02*
X16651525Y-13247345D01*
X16651525Y-13247345D02*
X16661049Y-13256869D01*
X16661049Y-13256869D02*
X16670573Y-13275916D01*
X16670573Y-13275916D02*
X16680096Y-13314011D01*
X16680096Y-13314011D02*
X16680096Y-13361631D01*
X16680096Y-13361631D02*
X16670573Y-13399726D01*
X16670573Y-13399726D02*
X16661049Y-13418773D01*
X16661049Y-13418773D02*
X16651525Y-13428297D01*
X16651525Y-13428297D02*
X16632477Y-13437821D01*
X16632477Y-13437821D02*
X16613430Y-13437821D01*
X16613430Y-13437821D02*
X16594382Y-13428297D01*
X16594382Y-13428297D02*
X16584858Y-13418773D01*
X16584858Y-13418773D02*
X16575334Y-13399726D01*
X16575334Y-13399726D02*
X16565811Y-13361631D01*
X16565811Y-13361631D02*
X16565811Y-13314011D01*
X16565811Y-13314011D02*
X16575334Y-13275916D01*
X16575334Y-13275916D02*
X16584858Y-13256869D01*
X16584858Y-13256869D02*
X16594382Y-13247345D01*
X16594382Y-13247345D02*
X16613430Y-13237821D01*
X16746763Y-13237821D02*
X16870573Y-13237821D01*
X16870573Y-13237821D02*
X16803906Y-13314011D01*
X16803906Y-13314011D02*
X16832477Y-13314011D01*
X16832477Y-13314011D02*
X16851525Y-13323535D01*
X16851525Y-13323535D02*
X16861049Y-13333059D01*
X16861049Y-13333059D02*
X16870573Y-13352107D01*
X16870573Y-13352107D02*
X16870573Y-13399726D01*
X16870573Y-13399726D02*
X16861049Y-13418773D01*
X16861049Y-13418773D02*
X16851525Y-13428297D01*
X16851525Y-13428297D02*
X16832477Y-13437821D01*
X16832477Y-13437821D02*
X16775334Y-13437821D01*
X16775334Y-13437821D02*
X16756287Y-13428297D01*
X16756287Y-13428297D02*
X16746763Y-13418773D01*
X16965811Y-13437821D02*
X17003906Y-13437821D01*
X17003906Y-13437821D02*
X17022954Y-13428297D01*
X17022954Y-13428297D02*
X17032477Y-13418773D01*
X17032477Y-13418773D02*
X17051525Y-13390202D01*
X17051525Y-13390202D02*
X17061049Y-13352107D01*
X17061049Y-13352107D02*
X17061049Y-13275916D01*
X17061049Y-13275916D02*
X17051525Y-13256869D01*
X17051525Y-13256869D02*
X17042001Y-13247345D01*
X17042001Y-13247345D02*
X17022954Y-13237821D01*
X17022954Y-13237821D02*
X16984858Y-13237821D01*
X16984858Y-13237821D02*
X16965811Y-13247345D01*
X16965811Y-13247345D02*
X16956287Y-13256869D01*
X16956287Y-13256869D02*
X16946763Y-13275916D01*
X16946763Y-13275916D02*
X16946763Y-13323535D01*
X16946763Y-13323535D02*
X16956287Y-13342583D01*
X16956287Y-13342583D02*
X16965811Y-13352107D01*
X16965811Y-13352107D02*
X16984858Y-13361631D01*
X16984858Y-13361631D02*
X17022954Y-13361631D01*
X17022954Y-13361631D02*
X17042001Y-13352107D01*
X17042001Y-13352107D02*
X17051525Y-13342583D01*
X17051525Y-13342583D02*
X17061049Y-13323535D01*
X17232477Y-13304488D02*
X17232477Y-13437821D01*
X17184858Y-13228297D02*
X17137239Y-13371154D01*
X17137239Y-13371154D02*
X17261049Y-13371154D01*
X17327716Y-13237821D02*
X17327716Y-13275916D01*
X17403906Y-13237821D02*
X17403906Y-13275916D01*
X17699144Y-13514011D02*
X17689620Y-13504488D01*
X17689620Y-13504488D02*
X17670573Y-13475916D01*
X17670573Y-13475916D02*
X17661049Y-13456869D01*
X17661049Y-13456869D02*
X17651525Y-13428297D01*
X17651525Y-13428297D02*
X17642001Y-13380678D01*
X17642001Y-13380678D02*
X17642001Y-13342583D01*
X17642001Y-13342583D02*
X17651525Y-13294964D01*
X17651525Y-13294964D02*
X17661049Y-13266392D01*
X17661049Y-13266392D02*
X17670573Y-13247345D01*
X17670573Y-13247345D02*
X17689620Y-13218773D01*
X17689620Y-13218773D02*
X17699144Y-13209250D01*
X17756287Y-13237821D02*
X17880097Y-13237821D01*
X17880097Y-13237821D02*
X17813430Y-13314011D01*
X17813430Y-13314011D02*
X17842001Y-13314011D01*
X17842001Y-13314011D02*
X17861049Y-13323535D01*
X17861049Y-13323535D02*
X17870573Y-13333059D01*
X17870573Y-13333059D02*
X17880097Y-13352107D01*
X17880097Y-13352107D02*
X17880097Y-13399726D01*
X17880097Y-13399726D02*
X17870573Y-13418773D01*
X17870573Y-13418773D02*
X17861049Y-13428297D01*
X17861049Y-13428297D02*
X17842001Y-13437821D01*
X17842001Y-13437821D02*
X17784858Y-13437821D01*
X17784858Y-13437821D02*
X17765811Y-13428297D01*
X17765811Y-13428297D02*
X17756287Y-13418773D01*
X18118192Y-13437821D02*
X18118192Y-13237821D01*
X18203906Y-13437821D02*
X18203906Y-13333059D01*
X18203906Y-13333059D02*
X18194382Y-13314011D01*
X18194382Y-13314011D02*
X18175335Y-13304488D01*
X18175335Y-13304488D02*
X18146763Y-13304488D01*
X18146763Y-13304488D02*
X18127716Y-13314011D01*
X18127716Y-13314011D02*
X18118192Y-13323535D01*
X18327716Y-13437821D02*
X18308668Y-13428297D01*
X18308668Y-13428297D02*
X18299144Y-13418773D01*
X18299144Y-13418773D02*
X18289620Y-13399726D01*
X18289620Y-13399726D02*
X18289620Y-13342583D01*
X18289620Y-13342583D02*
X18299144Y-13323535D01*
X18299144Y-13323535D02*
X18308668Y-13314011D01*
X18308668Y-13314011D02*
X18327716Y-13304488D01*
X18327716Y-13304488D02*
X18356287Y-13304488D01*
X18356287Y-13304488D02*
X18375335Y-13314011D01*
X18375335Y-13314011D02*
X18384859Y-13323535D01*
X18384859Y-13323535D02*
X18394382Y-13342583D01*
X18394382Y-13342583D02*
X18394382Y-13399726D01*
X18394382Y-13399726D02*
X18384859Y-13418773D01*
X18384859Y-13418773D02*
X18375335Y-13428297D01*
X18375335Y-13428297D02*
X18356287Y-13437821D01*
X18356287Y-13437821D02*
X18327716Y-13437821D01*
X18508668Y-13437821D02*
X18489620Y-13428297D01*
X18489620Y-13428297D02*
X18480097Y-13409250D01*
X18480097Y-13409250D02*
X18480097Y-13237821D01*
X18661049Y-13428297D02*
X18642001Y-13437821D01*
X18642001Y-13437821D02*
X18603906Y-13437821D01*
X18603906Y-13437821D02*
X18584859Y-13428297D01*
X18584859Y-13428297D02*
X18575335Y-13409250D01*
X18575335Y-13409250D02*
X18575335Y-13333059D01*
X18575335Y-13333059D02*
X18584859Y-13314011D01*
X18584859Y-13314011D02*
X18603906Y-13304488D01*
X18603906Y-13304488D02*
X18642001Y-13304488D01*
X18642001Y-13304488D02*
X18661049Y-13314011D01*
X18661049Y-13314011D02*
X18670573Y-13333059D01*
X18670573Y-13333059D02*
X18670573Y-13352107D01*
X18670573Y-13352107D02*
X18575335Y-13371154D01*
X18746763Y-13428297D02*
X18765811Y-13437821D01*
X18765811Y-13437821D02*
X18803906Y-13437821D01*
X18803906Y-13437821D02*
X18822954Y-13428297D01*
X18822954Y-13428297D02*
X18832478Y-13409250D01*
X18832478Y-13409250D02*
X18832478Y-13399726D01*
X18832478Y-13399726D02*
X18822954Y-13380678D01*
X18822954Y-13380678D02*
X18803906Y-13371154D01*
X18803906Y-13371154D02*
X18775335Y-13371154D01*
X18775335Y-13371154D02*
X18756287Y-13361631D01*
X18756287Y-13361631D02*
X18746763Y-13342583D01*
X18746763Y-13342583D02*
X18746763Y-13333059D01*
X18746763Y-13333059D02*
X18756287Y-13314011D01*
X18756287Y-13314011D02*
X18775335Y-13304488D01*
X18775335Y-13304488D02*
X18803906Y-13304488D01*
X18803906Y-13304488D02*
X18822954Y-13314011D01*
X18899144Y-13514011D02*
X18908668Y-13504488D01*
X18908668Y-13504488D02*
X18927716Y-13475916D01*
X18927716Y-13475916D02*
X18937240Y-13456869D01*
X18937240Y-13456869D02*
X18946763Y-13428297D01*
X18946763Y-13428297D02*
X18956287Y-13380678D01*
X18956287Y-13380678D02*
X18956287Y-13342583D01*
X18956287Y-13342583D02*
X18946763Y-13294964D01*
X18946763Y-13294964D02*
X18937240Y-13266392D01*
X18937240Y-13266392D02*
X18927716Y-13247345D01*
X18927716Y-13247345D02*
X18908668Y-13218773D01*
X18908668Y-13218773D02*
X18899144Y-13209250D01*
D13*
X14069081Y-13665337D02*
X14124081Y-13610337D01*
X14069081Y-13555337D01*
X14014081Y-13610337D01*
X14069081Y-13665337D01*
D11*
X14489620Y-13701821D02*
X14375334Y-13701821D01*
X14432477Y-13701821D02*
X14432477Y-13501821D01*
X14432477Y-13501821D02*
X14413429Y-13530392D01*
X14413429Y-13530392D02*
X14394382Y-13549440D01*
X14394382Y-13549440D02*
X14375334Y-13558964D01*
X14575334Y-13682773D02*
X14584858Y-13692297D01*
X14584858Y-13692297D02*
X14575334Y-13701821D01*
X14575334Y-13701821D02*
X14565810Y-13692297D01*
X14565810Y-13692297D02*
X14575334Y-13682773D01*
X14575334Y-13682773D02*
X14575334Y-13701821D01*
X14775334Y-13701821D02*
X14661049Y-13701821D01*
X14718191Y-13701821D02*
X14718191Y-13501821D01*
X14718191Y-13501821D02*
X14699144Y-13530392D01*
X14699144Y-13530392D02*
X14680096Y-13549440D01*
X14680096Y-13549440D02*
X14661049Y-13558964D01*
X14899144Y-13501821D02*
X14918191Y-13501821D01*
X14918191Y-13501821D02*
X14937239Y-13511345D01*
X14937239Y-13511345D02*
X14946763Y-13520869D01*
X14946763Y-13520869D02*
X14956287Y-13539916D01*
X14956287Y-13539916D02*
X14965810Y-13578011D01*
X14965810Y-13578011D02*
X14965810Y-13625631D01*
X14965810Y-13625631D02*
X14956287Y-13663726D01*
X14956287Y-13663726D02*
X14946763Y-13682773D01*
X14946763Y-13682773D02*
X14937239Y-13692297D01*
X14937239Y-13692297D02*
X14918191Y-13701821D01*
X14918191Y-13701821D02*
X14899144Y-13701821D01*
X14899144Y-13701821D02*
X14880096Y-13692297D01*
X14880096Y-13692297D02*
X14870572Y-13682773D01*
X14870572Y-13682773D02*
X14861049Y-13663726D01*
X14861049Y-13663726D02*
X14851525Y-13625631D01*
X14851525Y-13625631D02*
X14851525Y-13578011D01*
X14851525Y-13578011D02*
X14861049Y-13539916D01*
X14861049Y-13539916D02*
X14870572Y-13520869D01*
X14870572Y-13520869D02*
X14880096Y-13511345D01*
X14880096Y-13511345D02*
X14899144Y-13501821D01*
X15089620Y-13501821D02*
X15108668Y-13501821D01*
X15108668Y-13501821D02*
X15127715Y-13511345D01*
X15127715Y-13511345D02*
X15137239Y-13520869D01*
X15137239Y-13520869D02*
X15146763Y-13539916D01*
X15146763Y-13539916D02*
X15156287Y-13578011D01*
X15156287Y-13578011D02*
X15156287Y-13625631D01*
X15156287Y-13625631D02*
X15146763Y-13663726D01*
X15146763Y-13663726D02*
X15137239Y-13682773D01*
X15137239Y-13682773D02*
X15127715Y-13692297D01*
X15127715Y-13692297D02*
X15108668Y-13701821D01*
X15108668Y-13701821D02*
X15089620Y-13701821D01*
X15089620Y-13701821D02*
X15070572Y-13692297D01*
X15070572Y-13692297D02*
X15061049Y-13682773D01*
X15061049Y-13682773D02*
X15051525Y-13663726D01*
X15051525Y-13663726D02*
X15042001Y-13625631D01*
X15042001Y-13625631D02*
X15042001Y-13578011D01*
X15042001Y-13578011D02*
X15051525Y-13539916D01*
X15051525Y-13539916D02*
X15061049Y-13520869D01*
X15061049Y-13520869D02*
X15070572Y-13511345D01*
X15070572Y-13511345D02*
X15089620Y-13501821D01*
X15242001Y-13701821D02*
X15242001Y-13568488D01*
X15242001Y-13587535D02*
X15251525Y-13578011D01*
X15251525Y-13578011D02*
X15270572Y-13568488D01*
X15270572Y-13568488D02*
X15299144Y-13568488D01*
X15299144Y-13568488D02*
X15318191Y-13578011D01*
X15318191Y-13578011D02*
X15327715Y-13597059D01*
X15327715Y-13597059D02*
X15327715Y-13701821D01*
X15327715Y-13597059D02*
X15337239Y-13578011D01*
X15337239Y-13578011D02*
X15356287Y-13568488D01*
X15356287Y-13568488D02*
X15384858Y-13568488D01*
X15384858Y-13568488D02*
X15403906Y-13578011D01*
X15403906Y-13578011D02*
X15413430Y-13597059D01*
X15413430Y-13597059D02*
X15413430Y-13701821D01*
X15508668Y-13701821D02*
X15508668Y-13568488D01*
X15508668Y-13587535D02*
X15518191Y-13578011D01*
X15518191Y-13578011D02*
X15537239Y-13568488D01*
X15537239Y-13568488D02*
X15565811Y-13568488D01*
X15565811Y-13568488D02*
X15584858Y-13578011D01*
X15584858Y-13578011D02*
X15594382Y-13597059D01*
X15594382Y-13597059D02*
X15594382Y-13701821D01*
X15594382Y-13597059D02*
X15603906Y-13578011D01*
X15603906Y-13578011D02*
X15622953Y-13568488D01*
X15622953Y-13568488D02*
X15651525Y-13568488D01*
X15651525Y-13568488D02*
X15670572Y-13578011D01*
X15670572Y-13578011D02*
X15680096Y-13597059D01*
X15680096Y-13597059D02*
X15680096Y-13701821D01*
X16070572Y-13492297D02*
X15899144Y-13749440D01*
X16327715Y-13501821D02*
X16346763Y-13501821D01*
X16346763Y-13501821D02*
X16365811Y-13511345D01*
X16365811Y-13511345D02*
X16375334Y-13520869D01*
X16375334Y-13520869D02*
X16384858Y-13539916D01*
X16384858Y-13539916D02*
X16394382Y-13578011D01*
X16394382Y-13578011D02*
X16394382Y-13625631D01*
X16394382Y-13625631D02*
X16384858Y-13663726D01*
X16384858Y-13663726D02*
X16375334Y-13682773D01*
X16375334Y-13682773D02*
X16365811Y-13692297D01*
X16365811Y-13692297D02*
X16346763Y-13701821D01*
X16346763Y-13701821D02*
X16327715Y-13701821D01*
X16327715Y-13701821D02*
X16308668Y-13692297D01*
X16308668Y-13692297D02*
X16299144Y-13682773D01*
X16299144Y-13682773D02*
X16289620Y-13663726D01*
X16289620Y-13663726D02*
X16280096Y-13625631D01*
X16280096Y-13625631D02*
X16280096Y-13578011D01*
X16280096Y-13578011D02*
X16289620Y-13539916D01*
X16289620Y-13539916D02*
X16299144Y-13520869D01*
X16299144Y-13520869D02*
X16308668Y-13511345D01*
X16308668Y-13511345D02*
X16327715Y-13501821D01*
X16480096Y-13682773D02*
X16489620Y-13692297D01*
X16489620Y-13692297D02*
X16480096Y-13701821D01*
X16480096Y-13701821D02*
X16470573Y-13692297D01*
X16470573Y-13692297D02*
X16480096Y-13682773D01*
X16480096Y-13682773D02*
X16480096Y-13701821D01*
X16613430Y-13501821D02*
X16632477Y-13501821D01*
X16632477Y-13501821D02*
X16651525Y-13511345D01*
X16651525Y-13511345D02*
X16661049Y-13520869D01*
X16661049Y-13520869D02*
X16670573Y-13539916D01*
X16670573Y-13539916D02*
X16680096Y-13578011D01*
X16680096Y-13578011D02*
X16680096Y-13625631D01*
X16680096Y-13625631D02*
X16670573Y-13663726D01*
X16670573Y-13663726D02*
X16661049Y-13682773D01*
X16661049Y-13682773D02*
X16651525Y-13692297D01*
X16651525Y-13692297D02*
X16632477Y-13701821D01*
X16632477Y-13701821D02*
X16613430Y-13701821D01*
X16613430Y-13701821D02*
X16594382Y-13692297D01*
X16594382Y-13692297D02*
X16584858Y-13682773D01*
X16584858Y-13682773D02*
X16575334Y-13663726D01*
X16575334Y-13663726D02*
X16565811Y-13625631D01*
X16565811Y-13625631D02*
X16565811Y-13578011D01*
X16565811Y-13578011D02*
X16575334Y-13539916D01*
X16575334Y-13539916D02*
X16584858Y-13520869D01*
X16584858Y-13520869D02*
X16594382Y-13511345D01*
X16594382Y-13511345D02*
X16613430Y-13501821D01*
X16851525Y-13568488D02*
X16851525Y-13701821D01*
X16803906Y-13492297D02*
X16756287Y-13635154D01*
X16756287Y-13635154D02*
X16880096Y-13635154D01*
X16937239Y-13501821D02*
X17061049Y-13501821D01*
X17061049Y-13501821D02*
X16994382Y-13578011D01*
X16994382Y-13578011D02*
X17022954Y-13578011D01*
X17022954Y-13578011D02*
X17042001Y-13587535D01*
X17042001Y-13587535D02*
X17051525Y-13597059D01*
X17051525Y-13597059D02*
X17061049Y-13616107D01*
X17061049Y-13616107D02*
X17061049Y-13663726D01*
X17061049Y-13663726D02*
X17051525Y-13682773D01*
X17051525Y-13682773D02*
X17042001Y-13692297D01*
X17042001Y-13692297D02*
X17022954Y-13701821D01*
X17022954Y-13701821D02*
X16965811Y-13701821D01*
X16965811Y-13701821D02*
X16946763Y-13692297D01*
X16946763Y-13692297D02*
X16937239Y-13682773D01*
X17127716Y-13501821D02*
X17251525Y-13501821D01*
X17251525Y-13501821D02*
X17184858Y-13578011D01*
X17184858Y-13578011D02*
X17213430Y-13578011D01*
X17213430Y-13578011D02*
X17232477Y-13587535D01*
X17232477Y-13587535D02*
X17242001Y-13597059D01*
X17242001Y-13597059D02*
X17251525Y-13616107D01*
X17251525Y-13616107D02*
X17251525Y-13663726D01*
X17251525Y-13663726D02*
X17242001Y-13682773D01*
X17242001Y-13682773D02*
X17232477Y-13692297D01*
X17232477Y-13692297D02*
X17213430Y-13701821D01*
X17213430Y-13701821D02*
X17156287Y-13701821D01*
X17156287Y-13701821D02*
X17137239Y-13692297D01*
X17137239Y-13692297D02*
X17127716Y-13682773D01*
X17327716Y-13501821D02*
X17327716Y-13539916D01*
X17403906Y-13501821D02*
X17403906Y-13539916D01*
X17699144Y-13778011D02*
X17689620Y-13768488D01*
X17689620Y-13768488D02*
X17670573Y-13739916D01*
X17670573Y-13739916D02*
X17661049Y-13720869D01*
X17661049Y-13720869D02*
X17651525Y-13692297D01*
X17651525Y-13692297D02*
X17642001Y-13644678D01*
X17642001Y-13644678D02*
X17642001Y-13606583D01*
X17642001Y-13606583D02*
X17651525Y-13558964D01*
X17651525Y-13558964D02*
X17661049Y-13530392D01*
X17661049Y-13530392D02*
X17670573Y-13511345D01*
X17670573Y-13511345D02*
X17689620Y-13482773D01*
X17689620Y-13482773D02*
X17699144Y-13473250D01*
X17880097Y-13701821D02*
X17765811Y-13701821D01*
X17822954Y-13701821D02*
X17822954Y-13501821D01*
X17822954Y-13501821D02*
X17803906Y-13530392D01*
X17803906Y-13530392D02*
X17784858Y-13549440D01*
X17784858Y-13549440D02*
X17765811Y-13558964D01*
X18118192Y-13701821D02*
X18118192Y-13501821D01*
X18203906Y-13701821D02*
X18203906Y-13597059D01*
X18203906Y-13597059D02*
X18194382Y-13578011D01*
X18194382Y-13578011D02*
X18175335Y-13568488D01*
X18175335Y-13568488D02*
X18146763Y-13568488D01*
X18146763Y-13568488D02*
X18127716Y-13578011D01*
X18127716Y-13578011D02*
X18118192Y-13587535D01*
X18327716Y-13701821D02*
X18308668Y-13692297D01*
X18308668Y-13692297D02*
X18299144Y-13682773D01*
X18299144Y-13682773D02*
X18289620Y-13663726D01*
X18289620Y-13663726D02*
X18289620Y-13606583D01*
X18289620Y-13606583D02*
X18299144Y-13587535D01*
X18299144Y-13587535D02*
X18308668Y-13578011D01*
X18308668Y-13578011D02*
X18327716Y-13568488D01*
X18327716Y-13568488D02*
X18356287Y-13568488D01*
X18356287Y-13568488D02*
X18375335Y-13578011D01*
X18375335Y-13578011D02*
X18384859Y-13587535D01*
X18384859Y-13587535D02*
X18394382Y-13606583D01*
X18394382Y-13606583D02*
X18394382Y-13663726D01*
X18394382Y-13663726D02*
X18384859Y-13682773D01*
X18384859Y-13682773D02*
X18375335Y-13692297D01*
X18375335Y-13692297D02*
X18356287Y-13701821D01*
X18356287Y-13701821D02*
X18327716Y-13701821D01*
X18508668Y-13701821D02*
X18489620Y-13692297D01*
X18489620Y-13692297D02*
X18480097Y-13673250D01*
X18480097Y-13673250D02*
X18480097Y-13501821D01*
X18661049Y-13692297D02*
X18642001Y-13701821D01*
X18642001Y-13701821D02*
X18603906Y-13701821D01*
X18603906Y-13701821D02*
X18584859Y-13692297D01*
X18584859Y-13692297D02*
X18575335Y-13673250D01*
X18575335Y-13673250D02*
X18575335Y-13597059D01*
X18575335Y-13597059D02*
X18584859Y-13578011D01*
X18584859Y-13578011D02*
X18603906Y-13568488D01*
X18603906Y-13568488D02*
X18642001Y-13568488D01*
X18642001Y-13568488D02*
X18661049Y-13578011D01*
X18661049Y-13578011D02*
X18670573Y-13597059D01*
X18670573Y-13597059D02*
X18670573Y-13616107D01*
X18670573Y-13616107D02*
X18575335Y-13635154D01*
X18737240Y-13778011D02*
X18746763Y-13768488D01*
X18746763Y-13768488D02*
X18765811Y-13739916D01*
X18765811Y-13739916D02*
X18775335Y-13720869D01*
X18775335Y-13720869D02*
X18784859Y-13692297D01*
X18784859Y-13692297D02*
X18794382Y-13644678D01*
X18794382Y-13644678D02*
X18794382Y-13606583D01*
X18794382Y-13606583D02*
X18784859Y-13558964D01*
X18784859Y-13558964D02*
X18775335Y-13530392D01*
X18775335Y-13530392D02*
X18765811Y-13511345D01*
X18765811Y-13511345D02*
X18746763Y-13482773D01*
X18746763Y-13482773D02*
X18737240Y-13473250D01*
D14*
X14004081Y-13814337D02*
X14124081Y-13934337D01*
X14124081Y-13814337D02*
X14004081Y-13934337D01*
X14124081Y-13874337D02*
G75*
G02*
X14004081Y-13874337I-60000J0D01*
G01*
X14004081Y-13874337D02*
G75*
G02*
X14124081Y-13874337I60000J0D01*
G01*
D11*
X14489620Y-13965821D02*
X14375334Y-13965821D01*
X14432477Y-13965821D02*
X14432477Y-13765821D01*
X14432477Y-13765821D02*
X14413429Y-13794392D01*
X14413429Y-13794392D02*
X14394382Y-13813440D01*
X14394382Y-13813440D02*
X14375334Y-13822964D01*
X14575334Y-13946773D02*
X14584858Y-13956297D01*
X14584858Y-13956297D02*
X14575334Y-13965821D01*
X14575334Y-13965821D02*
X14565810Y-13956297D01*
X14565810Y-13956297D02*
X14575334Y-13946773D01*
X14575334Y-13946773D02*
X14575334Y-13965821D01*
X14661049Y-13784869D02*
X14670572Y-13775345D01*
X14670572Y-13775345D02*
X14689620Y-13765821D01*
X14689620Y-13765821D02*
X14737239Y-13765821D01*
X14737239Y-13765821D02*
X14756287Y-13775345D01*
X14756287Y-13775345D02*
X14765810Y-13784869D01*
X14765810Y-13784869D02*
X14775334Y-13803916D01*
X14775334Y-13803916D02*
X14775334Y-13822964D01*
X14775334Y-13822964D02*
X14765810Y-13851535D01*
X14765810Y-13851535D02*
X14651525Y-13965821D01*
X14651525Y-13965821D02*
X14775334Y-13965821D01*
X14899144Y-13765821D02*
X14918191Y-13765821D01*
X14918191Y-13765821D02*
X14937239Y-13775345D01*
X14937239Y-13775345D02*
X14946763Y-13784869D01*
X14946763Y-13784869D02*
X14956287Y-13803916D01*
X14956287Y-13803916D02*
X14965810Y-13842011D01*
X14965810Y-13842011D02*
X14965810Y-13889631D01*
X14965810Y-13889631D02*
X14956287Y-13927726D01*
X14956287Y-13927726D02*
X14946763Y-13946773D01*
X14946763Y-13946773D02*
X14937239Y-13956297D01*
X14937239Y-13956297D02*
X14918191Y-13965821D01*
X14918191Y-13965821D02*
X14899144Y-13965821D01*
X14899144Y-13965821D02*
X14880096Y-13956297D01*
X14880096Y-13956297D02*
X14870572Y-13946773D01*
X14870572Y-13946773D02*
X14861049Y-13927726D01*
X14861049Y-13927726D02*
X14851525Y-13889631D01*
X14851525Y-13889631D02*
X14851525Y-13842011D01*
X14851525Y-13842011D02*
X14861049Y-13803916D01*
X14861049Y-13803916D02*
X14870572Y-13784869D01*
X14870572Y-13784869D02*
X14880096Y-13775345D01*
X14880096Y-13775345D02*
X14899144Y-13765821D01*
X15089620Y-13765821D02*
X15108668Y-13765821D01*
X15108668Y-13765821D02*
X15127715Y-13775345D01*
X15127715Y-13775345D02*
X15137239Y-13784869D01*
X15137239Y-13784869D02*
X15146763Y-13803916D01*
X15146763Y-13803916D02*
X15156287Y-13842011D01*
X15156287Y-13842011D02*
X15156287Y-13889631D01*
X15156287Y-13889631D02*
X15146763Y-13927726D01*
X15146763Y-13927726D02*
X15137239Y-13946773D01*
X15137239Y-13946773D02*
X15127715Y-13956297D01*
X15127715Y-13956297D02*
X15108668Y-13965821D01*
X15108668Y-13965821D02*
X15089620Y-13965821D01*
X15089620Y-13965821D02*
X15070572Y-13956297D01*
X15070572Y-13956297D02*
X15061049Y-13946773D01*
X15061049Y-13946773D02*
X15051525Y-13927726D01*
X15051525Y-13927726D02*
X15042001Y-13889631D01*
X15042001Y-13889631D02*
X15042001Y-13842011D01*
X15042001Y-13842011D02*
X15051525Y-13803916D01*
X15051525Y-13803916D02*
X15061049Y-13784869D01*
X15061049Y-13784869D02*
X15070572Y-13775345D01*
X15070572Y-13775345D02*
X15089620Y-13765821D01*
X15242001Y-13965821D02*
X15242001Y-13832488D01*
X15242001Y-13851535D02*
X15251525Y-13842011D01*
X15251525Y-13842011D02*
X15270572Y-13832488D01*
X15270572Y-13832488D02*
X15299144Y-13832488D01*
X15299144Y-13832488D02*
X15318191Y-13842011D01*
X15318191Y-13842011D02*
X15327715Y-13861059D01*
X15327715Y-13861059D02*
X15327715Y-13965821D01*
X15327715Y-13861059D02*
X15337239Y-13842011D01*
X15337239Y-13842011D02*
X15356287Y-13832488D01*
X15356287Y-13832488D02*
X15384858Y-13832488D01*
X15384858Y-13832488D02*
X15403906Y-13842011D01*
X15403906Y-13842011D02*
X15413430Y-13861059D01*
X15413430Y-13861059D02*
X15413430Y-13965821D01*
X15508668Y-13965821D02*
X15508668Y-13832488D01*
X15508668Y-13851535D02*
X15518191Y-13842011D01*
X15518191Y-13842011D02*
X15537239Y-13832488D01*
X15537239Y-13832488D02*
X15565811Y-13832488D01*
X15565811Y-13832488D02*
X15584858Y-13842011D01*
X15584858Y-13842011D02*
X15594382Y-13861059D01*
X15594382Y-13861059D02*
X15594382Y-13965821D01*
X15594382Y-13861059D02*
X15603906Y-13842011D01*
X15603906Y-13842011D02*
X15622953Y-13832488D01*
X15622953Y-13832488D02*
X15651525Y-13832488D01*
X15651525Y-13832488D02*
X15670572Y-13842011D01*
X15670572Y-13842011D02*
X15680096Y-13861059D01*
X15680096Y-13861059D02*
X15680096Y-13965821D01*
X16070572Y-13756297D02*
X15899144Y-14013440D01*
X16327715Y-13765821D02*
X16346763Y-13765821D01*
X16346763Y-13765821D02*
X16365811Y-13775345D01*
X16365811Y-13775345D02*
X16375334Y-13784869D01*
X16375334Y-13784869D02*
X16384858Y-13803916D01*
X16384858Y-13803916D02*
X16394382Y-13842011D01*
X16394382Y-13842011D02*
X16394382Y-13889631D01*
X16394382Y-13889631D02*
X16384858Y-13927726D01*
X16384858Y-13927726D02*
X16375334Y-13946773D01*
X16375334Y-13946773D02*
X16365811Y-13956297D01*
X16365811Y-13956297D02*
X16346763Y-13965821D01*
X16346763Y-13965821D02*
X16327715Y-13965821D01*
X16327715Y-13965821D02*
X16308668Y-13956297D01*
X16308668Y-13956297D02*
X16299144Y-13946773D01*
X16299144Y-13946773D02*
X16289620Y-13927726D01*
X16289620Y-13927726D02*
X16280096Y-13889631D01*
X16280096Y-13889631D02*
X16280096Y-13842011D01*
X16280096Y-13842011D02*
X16289620Y-13803916D01*
X16289620Y-13803916D02*
X16299144Y-13784869D01*
X16299144Y-13784869D02*
X16308668Y-13775345D01*
X16308668Y-13775345D02*
X16327715Y-13765821D01*
X16480096Y-13946773D02*
X16489620Y-13956297D01*
X16489620Y-13956297D02*
X16480096Y-13965821D01*
X16480096Y-13965821D02*
X16470573Y-13956297D01*
X16470573Y-13956297D02*
X16480096Y-13946773D01*
X16480096Y-13946773D02*
X16480096Y-13965821D01*
X16613430Y-13765821D02*
X16632477Y-13765821D01*
X16632477Y-13765821D02*
X16651525Y-13775345D01*
X16651525Y-13775345D02*
X16661049Y-13784869D01*
X16661049Y-13784869D02*
X16670573Y-13803916D01*
X16670573Y-13803916D02*
X16680096Y-13842011D01*
X16680096Y-13842011D02*
X16680096Y-13889631D01*
X16680096Y-13889631D02*
X16670573Y-13927726D01*
X16670573Y-13927726D02*
X16661049Y-13946773D01*
X16661049Y-13946773D02*
X16651525Y-13956297D01*
X16651525Y-13956297D02*
X16632477Y-13965821D01*
X16632477Y-13965821D02*
X16613430Y-13965821D01*
X16613430Y-13965821D02*
X16594382Y-13956297D01*
X16594382Y-13956297D02*
X16584858Y-13946773D01*
X16584858Y-13946773D02*
X16575334Y-13927726D01*
X16575334Y-13927726D02*
X16565811Y-13889631D01*
X16565811Y-13889631D02*
X16565811Y-13842011D01*
X16565811Y-13842011D02*
X16575334Y-13803916D01*
X16575334Y-13803916D02*
X16584858Y-13784869D01*
X16584858Y-13784869D02*
X16594382Y-13775345D01*
X16594382Y-13775345D02*
X16613430Y-13765821D01*
X16851525Y-13832488D02*
X16851525Y-13965821D01*
X16803906Y-13756297D02*
X16756287Y-13899154D01*
X16756287Y-13899154D02*
X16880096Y-13899154D01*
X16937239Y-13765821D02*
X17070573Y-13765821D01*
X17070573Y-13765821D02*
X16984858Y-13965821D01*
X17137239Y-13784869D02*
X17146763Y-13775345D01*
X17146763Y-13775345D02*
X17165811Y-13765821D01*
X17165811Y-13765821D02*
X17213430Y-13765821D01*
X17213430Y-13765821D02*
X17232477Y-13775345D01*
X17232477Y-13775345D02*
X17242001Y-13784869D01*
X17242001Y-13784869D02*
X17251525Y-13803916D01*
X17251525Y-13803916D02*
X17251525Y-13822964D01*
X17251525Y-13822964D02*
X17242001Y-13851535D01*
X17242001Y-13851535D02*
X17127716Y-13965821D01*
X17127716Y-13965821D02*
X17251525Y-13965821D01*
X17327716Y-13765821D02*
X17327716Y-13803916D01*
X17403906Y-13765821D02*
X17403906Y-13803916D01*
X17699144Y-14042011D02*
X17689620Y-14032488D01*
X17689620Y-14032488D02*
X17670573Y-14003916D01*
X17670573Y-14003916D02*
X17661049Y-13984869D01*
X17661049Y-13984869D02*
X17651525Y-13956297D01*
X17651525Y-13956297D02*
X17642001Y-13908678D01*
X17642001Y-13908678D02*
X17642001Y-13870583D01*
X17642001Y-13870583D02*
X17651525Y-13822964D01*
X17651525Y-13822964D02*
X17661049Y-13794392D01*
X17661049Y-13794392D02*
X17670573Y-13775345D01*
X17670573Y-13775345D02*
X17689620Y-13746773D01*
X17689620Y-13746773D02*
X17699144Y-13737250D01*
X17765811Y-13784869D02*
X17775335Y-13775345D01*
X17775335Y-13775345D02*
X17794382Y-13765821D01*
X17794382Y-13765821D02*
X17842001Y-13765821D01*
X17842001Y-13765821D02*
X17861049Y-13775345D01*
X17861049Y-13775345D02*
X17870573Y-13784869D01*
X17870573Y-13784869D02*
X17880097Y-13803916D01*
X17880097Y-13803916D02*
X17880097Y-13822964D01*
X17880097Y-13822964D02*
X17870573Y-13851535D01*
X17870573Y-13851535D02*
X17756287Y-13965821D01*
X17756287Y-13965821D02*
X17880097Y-13965821D01*
X18118192Y-13965821D02*
X18118192Y-13765821D01*
X18203906Y-13965821D02*
X18203906Y-13861059D01*
X18203906Y-13861059D02*
X18194382Y-13842011D01*
X18194382Y-13842011D02*
X18175335Y-13832488D01*
X18175335Y-13832488D02*
X18146763Y-13832488D01*
X18146763Y-13832488D02*
X18127716Y-13842011D01*
X18127716Y-13842011D02*
X18118192Y-13851535D01*
X18327716Y-13965821D02*
X18308668Y-13956297D01*
X18308668Y-13956297D02*
X18299144Y-13946773D01*
X18299144Y-13946773D02*
X18289620Y-13927726D01*
X18289620Y-13927726D02*
X18289620Y-13870583D01*
X18289620Y-13870583D02*
X18299144Y-13851535D01*
X18299144Y-13851535D02*
X18308668Y-13842011D01*
X18308668Y-13842011D02*
X18327716Y-13832488D01*
X18327716Y-13832488D02*
X18356287Y-13832488D01*
X18356287Y-13832488D02*
X18375335Y-13842011D01*
X18375335Y-13842011D02*
X18384859Y-13851535D01*
X18384859Y-13851535D02*
X18394382Y-13870583D01*
X18394382Y-13870583D02*
X18394382Y-13927726D01*
X18394382Y-13927726D02*
X18384859Y-13946773D01*
X18384859Y-13946773D02*
X18375335Y-13956297D01*
X18375335Y-13956297D02*
X18356287Y-13965821D01*
X18356287Y-13965821D02*
X18327716Y-13965821D01*
X18508668Y-13965821D02*
X18489620Y-13956297D01*
X18489620Y-13956297D02*
X18480097Y-13937250D01*
X18480097Y-13937250D02*
X18480097Y-13765821D01*
X18661049Y-13956297D02*
X18642001Y-13965821D01*
X18642001Y-13965821D02*
X18603906Y-13965821D01*
X18603906Y-13965821D02*
X18584859Y-13956297D01*
X18584859Y-13956297D02*
X18575335Y-13937250D01*
X18575335Y-13937250D02*
X18575335Y-13861059D01*
X18575335Y-13861059D02*
X18584859Y-13842011D01*
X18584859Y-13842011D02*
X18603906Y-13832488D01*
X18603906Y-13832488D02*
X18642001Y-13832488D01*
X18642001Y-13832488D02*
X18661049Y-13842011D01*
X18661049Y-13842011D02*
X18670573Y-13861059D01*
X18670573Y-13861059D02*
X18670573Y-13880107D01*
X18670573Y-13880107D02*
X18575335Y-13899154D01*
X18746763Y-13956297D02*
X18765811Y-13965821D01*
X18765811Y-13965821D02*
X18803906Y-13965821D01*
X18803906Y-13965821D02*
X18822954Y-13956297D01*
X18822954Y-13956297D02*
X18832478Y-13937250D01*
X18832478Y-13937250D02*
X18832478Y-13927726D01*
X18832478Y-13927726D02*
X18822954Y-13908678D01*
X18822954Y-13908678D02*
X18803906Y-13899154D01*
X18803906Y-13899154D02*
X18775335Y-13899154D01*
X18775335Y-13899154D02*
X18756287Y-13889631D01*
X18756287Y-13889631D02*
X18746763Y-13870583D01*
X18746763Y-13870583D02*
X18746763Y-13861059D01*
X18746763Y-13861059D02*
X18756287Y-13842011D01*
X18756287Y-13842011D02*
X18775335Y-13832488D01*
X18775335Y-13832488D02*
X18803906Y-13832488D01*
X18803906Y-13832488D02*
X18822954Y-13842011D01*
X18899144Y-14042011D02*
X18908668Y-14032488D01*
X18908668Y-14032488D02*
X18927716Y-14003916D01*
X18927716Y-14003916D02*
X18937240Y-13984869D01*
X18937240Y-13984869D02*
X18946763Y-13956297D01*
X18946763Y-13956297D02*
X18956287Y-13908678D01*
X18956287Y-13908678D02*
X18956287Y-13870583D01*
X18956287Y-13870583D02*
X18946763Y-13822964D01*
X18946763Y-13822964D02*
X18937240Y-13794392D01*
X18937240Y-13794392D02*
X18927716Y-13775345D01*
X18927716Y-13775345D02*
X18908668Y-13746773D01*
X18908668Y-13746773D02*
X18899144Y-13737250D01*
M02*
